<mxfile host="app.diagrams.net" modified="2024-01-20T10:00:52.501Z" agent="Mozilla/5.0 (Macintosh; Intel Mac OS X 10_15_7) AppleWebKit/537.36 (KHTML, like Gecko) Chrome/120.0.0.0 Safari/537.36" etag="L0UYSbF429JttLF5Y6in" version="22.1.20" type="device">
  <diagram name="Page-1" id="Petmfp8r9aLrp5cgmfQO">
    <mxGraphModel dx="1314" dy="682" grid="1" gridSize="10" guides="1" tooltips="1" connect="1" arrows="1" fold="1" page="1" pageScale="1" pageWidth="850" pageHeight="1100" math="0" shadow="0">
      <root>
        <mxCell id="0" />
        <mxCell id="1" parent="0" />
        <mxCell id="F8dkFaMJh0N_z7n8UZEi-1" value="" style="shape=image;verticalLabelPosition=bottom;labelBackgroundColor=default;verticalAlign=top;aspect=fixed;imageAspect=0;image=data:image/png,iVBORw0KGgoAAAANSUhEUgAAAgAAAAIACAYAAAD0eNT6AAAABHNCSVQICAgIfAhkiAAAAAlwSFlzAAAOxAAADsQBlSsOGwAAABl0RVh0U29mdHdhcmUAd3d3Lmlua3NjYXBlLm9yZ5vuPBoAACAASURBVHic7d151F1Vff/xdwYSIROTgAiIQSAIggpqAREQUKCIxdqq1Aqoxaq0orYKtmrEMWLr8ENxALUiWoECKjghMzI7aw3zPAoJgSQkZPr9sZMaQ5LnPs/9nrP3ufv9Wmuvdrn0e77nPjfnfO45++wzCnXZRGBPYCdge2A7YAtgwvIxKV9rkiozB5gLPADMBP4XuAK4CngiY19ag1G5G9Cw7QS8Bngp8EJgbN52JGmt5gEXAF8DfggsytuOVjAAdMMU4CjgDcDzMvciSSN1PzAD+BLweOZeqmcAKNtTgXcAx5BCgCQNgnuB6cApwLK8rdTLAFCmccC7gH8n3cuXpEH0M+BNwA25G6mRAaA8+wBfAHbI3IcktWEu8BbgW7kbqc2Y3A3o/4wBPgicCmySuRdJass44K+BDYEfZ+6lKgaAMmwOnEea5OdVGUk1ehHwdOB8nBfQCgNAftsAFwHPzd2IJGX2fNKaJudiCGicASCv3YCLSYv3SJLSWifbYQhonAEgn+eQTv4b5W5EkgpjCGiBASCPqcAlwMaZ+5CkUhkCGmYAaN8GwOXAVrkbkaTC7UQ6Vn4fQ0A4A0C7RgGnA3vkbkSSOuK5ODGwEaNzN1CZY4HDcjchSR3zWuCb+KM1lB9me7YD/gff3idJI+HtgGAGgPacBkzL3YQkdZi3AwL5a7QdrwEOangbvyAtKHQdcCMwC3is4W1K0q3A+i1u77XAAtJLhJa2uF1p2MaQTsjLGhhzgU/jlQVJ+cyimePbUONrOI9NhXst8V/8pcBX8aVBkvLLFQAMASraKODXxH7h/wgc3OZOSNJa5AwAhgAVa09iv+i3Adu2ugeStHa5A4AhQEX6InFf8DvwpUGSylNCADAEqCjjifuHMRfYsd32JaknpQQAQ4CKcQBxX+qjWu5dknpVUgAwBKgIHyfmy3wZaTKhJJWotABgCFB2VxPzRd697cYlaRhKDACGAGUzHlhE/1/gi9puXJKGqdQAYAhQFjsS8+V9fduNS9IwlRwADAFq3avo/0u7GJjSduOSNEwRAeBrATUMASrCe+n/C3td611L0vBFBICpwPSAOoaAYfDDaMZGATV+E1BDkrpiOnBcg/WPBE7F897/8YNoxsSAGrcF1JCkLpkBfKjB+kcCp+C5D/BDaMqkgBpzAmpIUtdMp9krAUfhlQDAD6Ap4wNqLAyoIUld5JWAFlS985KkYk3HKwGNqnbHJUnFm4ETAxtT5U5LkjrDENCQ6nZYktQ5hoAGVLWzkqTOMgQEq2ZHJUmdZwgIVMVOSpIGhiEgyMDvoCRp4BgCAgz0zkmSBpYhoE8Du2OSpIFnCOjDQO6UJKkahoARGrgdkiRVxxAwAgO1M5KkahkChmlgdkSSVD1DwDAMxE5IkrScIaBHnd8BSZJWYQjoQaeblyRpDQwBQ+hs45KkIiwOqDE2oMbqzAA+1FBtSCHgFDp6Lu1k05KkYswLqDEhoMaaTKfZKwFH0dErAZ1rWJJUlEcDakwJqLE2XglYjU41K0kqztyAGlsH1BjKdLwS8Gc606gkqUizA2psH1CjF14JWEknmpQkFevmgBrPDajRq+k0GwKOoiMhoPgGJUlFuyGgxl7AuIA6vZpO87cDig8BTT16oTo8DdgSmJy7EaljHgHuBB7M3UiAmQE1JgB/AVwWUKtXM4B1gQ82VP+o5f/3zcDShrahAp0BLOtzHN16171ZF/hX4Hf0v48OR+3jF8AxtPvrN9pmxHwWX2y78eWm99jfSMdXKfxKgGINagB4PnA7+Q+aDsegjZnANLrrRvr/DGYBT2m78eWm99BfP6PIEFBcQyrW7sDlwDNyNyINoO2Bq4CdcjcyQhcH1NiAP102b9t0KpwTUFQzKtbGwNnAerkbkQbY+sC5dPPf2UVBdd4DrBNUa7iafkSwuBBQTCMq2vtI9/kkNWsb4J25mxiBi4ElAXW2Bv4poM5ITaeyEKB4gzQHYDwwh/z3SB2OWsY9wCi658fE7P+jwNNb7n1V02n2b1zEnIDsDah4e+JjflKbNgd2zt3ECHwzqM4k4DRgTFC9kZhOBXMCDAAaytTcDUgV6uK/u7OJeS8AwL6kW485DfycAAOAhtLkazolrd6k3A2MwDzgvwPrTQdeF1hvpD00HQK+QqZzsQFAQ7k/dwNShe7J3cAInUjMZEBI56evAwcH1Rup6TQbAt5IphBgANBQrsndgFSZJcCvcjcxQjcCZwbWGwd8l3SSzGk6zc4JeCMZbgcYADSU20nLlUpqx0XAw7mb6MPHSDPdo4wlnRxPIO/EwDbmBGS7HaA4g/QYIMAryP9olMNRy9iT7vsGzXw2F5PWCshpOs3+/U/FENBpgxYAICXT3AdGh2PQx4kMhk2B2TTzGc0jPSGQ670BYAjQWgxiABgP/A/5D5AOx6COr5H3Ene0t9Ps53Uv8G7yPTExfYj++h1fam1PFGoQAwCk1cneQbo/mftg6XAMyriP9M74QTMGuJrmP795pEWIDgEmtrJnfzK9j757GSc02XwXl5vsgjOAv+mzxluALwf00oQppHkB+5HeDuhKgdLwzAbuAH4CnE86iQ2irYFfkl501IbFwLXAb4EbgDtJS5k/QjqhNuF9wKsaqg3wGtI5RR0xqFcAJGm4DgOWkv9KS1fHHNJLosI5yUCS1KRzgM/mbqLDJpOuBodfsTcASJKa9i+kdwVoZF4K/F10UQOAJKlpS0jr+l+Qu5EO+whpZcQwBgBJUhueIE2O/nnuRjrqGaTVAsMYACRJbZlDupx9ce5GOuo4As/bBgBJUpseBQ4EvpO7kQ7aGtgnqpgBQJLUtidIk9pOpLnn8wfVkVGFDACSpByWAO8BDqXbbz9s20EEnbsNAJKknM4DngdcnruRjtgY2CWikAFAkpTbXcDepHciPJS5ly4IeWW0AUCSVIJlpNfgTiOtfLckbztF2yGiiAFAklSSh0kvQ5sGfJU0YVB/blpEEQOAJKlENwNvArYlvUvAiYJ/sklEEQOAJKlkdwLHApsCBwCnAfOzdpRfyCvYDQCSpC5YAvwUeAMpDBxEWkfgeuqbLzAxosjYiCKSJLVoLvCj5QNgPWB7YDvS/fFtSb+SJy0f69PA63RHaB1gyz5rhOyLAUCS1HXzgV8uH6WbCtySuwnwFoAkSVUyAEiSVCEDgCRJFTIASJJUIQOAJEkVMgBIklQhA4AkSRVyHQCN1I7AfsBWpIU2JPVuDmmJ2x8DN2XuRZUyAGi49gU+CeyWuxFpQFwOvAe4Oncjqou3ADQcHwAuxJO/FGkvUgj459yNqC4GAPXqeOBDlLOetjRIxpJeefuW3I2oHgYA9WI34CO5m5Aq8DngWbmbUB0MAOrFR/C7IrVhHOlKm9Q4D+oayibA/rmbkCpyGDAhdxMafAYADWVPYEzuJqSKrAvsmrsJDT4DgIayee4GpAptkbsBDT4DgIayJHcDUoUW5W5Ag88AoKHclbsBqUJ3525Ag88AoKFcCizM3YRUkUeA63M3ocFnANBQ5gLn5G5CqsjpeAtALTAAqBfvBxbkbkKqwBzgw7mbUB0MAOrFzcCbgWW5G5EG2BLgdcADuRtRHQwA6tXppIPT/NyNSANoLvBq4Ie5G1E9DAAaju8AOwPfxomBUoT5wKnADsC5mXtRZcbmbkCdcwtwODCJ9BrTrYApWTuSumc2cAfpNcBeVVMWBgCN1GPAD3I3IUkaGW8BSJJUIQOAJEkVMgBIklQhA4AkSRUyAEiSVCEDgCRJFTIASJJUIQOAJEkVMgBIklQhA4AkSRUyAEiSVCEDgCRJFTIASJJUIQOAJEkVMgBIklQhA4AkSRUyAEiSVCEDgCRJFTIASJJUIQOAJEkVMgBIklQhA4AkSRUyAEiSVCEDgCRJFRqbuwF10rbA3wH7AVsBk/K2I0ksAO4DrgLOAC7L2075DAAajnWBTwFH43dHUnmeBjwfeDvwU+AfgNtzNlQybwGoVxsAlwJvw5O/pPLtD1wL7Jq7kVIZANSLMcB3gBfkbkSShuGpwPeAzXM3UiIDgHpxBHBA7iYkaQQ2B2bkbqJEBgD14vjcDUhSHw4Hts7dRGkMABrKc4Bn5W5CkvowGnhl7iZKYwDQUHbJ3YAkBfBYtgoDgIayce4GJCnAJrkbKI0BQEN5JHcDkhRgVu4GSmMA0FBuzN2AJAXwWLYKA4CGcg3wYO4mJKlP5+VuoDQGAA1lCfD/cjchSX24BPhV7iZKYwBQLz4NzMzdhCSNwHzgHbmbKJEBQL2YBxwK3J+7EUkahkXAkcBvMvdRJAOAenUT6V0AP8vdiCT14C7gZcCZuRsplQFAw3E3sBfwKuC7pCsDklSKxcCVwLHA9qR7/1oDX+uq4VoGnLN8AGwETMnXjiQBsAB4gDRxWT0wAKhfDy8fkqQO8RaAJEkVMgBIklQhA4AkSRUyAEiSVCEDgCRJFTIASJJUIQOAJEkVMgBIklQhA4AkSRUyAEiSVCEDgCRJFTIASJJUIQOAJEkVMgBIklQhA4AkSRUyAEiSVCEDgCRJFTIASJJUIQOAJEkVMgBIklQhA4AkSRUyAEiSVCEDgCRJFRqbuwF12tOALYHJuRuRVL0FwH3AbcDSzL10ggFAw7UucAxwBLBj5l4kaVX3A2cBnwDuydxL0bwFoOF4PvAH4JN48pdUps1IP1JuJP1Q0RoYANSr3YHLgWfkbkSSerAe8HXgnZn7KJYBQL3YGDib9A9KkrrkRGCf3E2UyACgXryPdFlNkrpmDPBpPN89iR+IhjIeeFPuJiSpD88l3cbUSgwAGsqe+JifpO47OHcDpTEAaChTczcgSQE8lq3CAKChTMjdgCQFmJi7gdIYADSU+3M3IEkB7s3dQGkMABrKNbkbkKQA1+ZuoDQGAA3lduAXuZuQpD4sBM7L3URpDADqxfTcDUhSHz4PPJC7idIYANSL7wOn5G5CkkZgJnBC7iZKZABQr44hLQcsSV3xB+AgYE7uRkpkAFCvFgKvBo4FZmXuRZLWZhFwMmn1v9vztlKusbkbUKcsAz5LesPWK4D9SG8HdKVASbktAO4BriJdrbwzbzvlMwBoJOYA31w+JEkd5C0ASZIqZACQJKlCBgBJkipkAJAkqUIGAEmSKmQAkCSpQgYASZIqZACQJKlCBgBJkipkAJAkqUIGAEmSKmQAkCSpQgYASZIqZACQJKlCBgBJkipkAJAkqUIGAEmSKmQAkCSpQgYASZIqZACQJKlCBgBJkipkAJAkqUIGAEmSKmQAkCSpQmNzN6DO2hHYD9gKmJS5F0laANwPXAlcASzJ2075DAAarn2BTwK75W5EktbgXuAE4CvA0sy9FMtbABqODwAX4slfUtk2B74IfBevUK6RAUC9Oh74EDAqdyOS1KNDgLPwavdqGQDUi92Aj+RuQpJG4GXAsbmbKJEBQL34CH5XJHXX+/BWwJN4UNdQNgH2z92EJPVhA+Cg3E2UxgCgoewJjMndhCT16SW5GyiNAUBD2Tx3A5IUYIvcDZTGAKChuJiGpEGwKHcDpTEAaCh35W5AkgJ4LFuFAUBDuRRYmLsJSerTBbkbKI0BQEOZC5yTuwlJ6sNdwEW5myiNAUC9eD/pRRuS1EX/hlcyn8QAoF7cDLwZWJa7EUkaplOB03I3USIDgHp1OvA6YH7uRiSpR18G3pq7iVIZADQc3wF2Br6Nl9MklWkZcAXwUuAt+PjfGvmGJA3XLcDhpHW19wK2AqZk7UiS0jylu4GrgXsy99IJBgCN1GPAD3I3IUkaGW8BSJJUIQOAJEkVMgBIklQhA4AkSRUyAEiSVCEDgCRJFTIASJJUIQOAJEkVMgBIklQhA4AkSRUyAEiSVCEDgCRJFTIASJJUIQOAJEkVMgBIklQhA4AkSRUyAEiSVCEDgCRJFTIASJJUIQOAJEkVMgBIklQhA4AkSRUyAEiSVCEDgCRJFRqVYZtPAfYF9gZ2AZ4JTF7+nw+KCcC4PmvMBxYG9CLVYikwB7gHmAlcAfwEuD9nUz2aCLwOeAXwLGBT8hyfu2wBcB9wFXAGcFnedtZoKnBLnzVmAxsG9NKabYAvkBpf5nA4HC2MxcAPgJdRrteTQkruz2rQxgXA1r3/GVozlf73bVbrXY/Q+sBJpH+Iub8QDoej3nE5sDNl+Rj5P5dBHg8Cu/b812hHMQGg6TkAewK/Ad4OjGl4W5K0Ni8GrgfeTRmX198KHJ+7iQH3VOB7wOa5GylRkwHgMOBCYMsGtyFJw7EO8CngG8v//1w2AWZk3H5NNsfPerWaCgCvBc4CxjdUX5L68XpSCMj1JNSxwKRM267R4ZQ5HyCrJr78ewL/1VBtSYryWuCjmbZ9WKbt1mo08MrcTZQm+iS9PvBt+n8ETpLa8F7g5S1vczywfcvbVHrsXCuJDgAfxXv+krpjFPAlYL0Wt7kxZUxCrM0muRsoTWQAmAocHVhPktrwDOAfW9ze7Ba3pT/pzLPzbYkMAP8CjA2sJ0lteTftHb/mk1YrVLtuzN1AaaICwFNIy1hKUhdtTrurBX6/xW0pOS93A6WJCgD7kiYASlJXtTkz/zOk1VHVjkuAX+VuojRRAWCfoDqSlMs+LW7rBuBzLW6vZvOBd+RuokRRAaC09bUlabi2Ib2Vry3vBc5vcXs1WgQcSVqSXquICgDPDKojSbmMot3V4hYDf0VamtjbAfHuIs3rODN3I6WKCgBTgupIUk5tH8sWA/9Kuop6MnB3y9sfNIuBK0lLLW9PuvevNYh67CVizf99SIlNkkbiu8BOfdZYN6KREfgD8LblY11gM1wsaLgWAA8AS3I30hUlPbd/F3Br7iYkddbC3A0EeRy4LXcTGny+sEeSpAoZACRJqpABQJKkChkAJEmqkAFAkqQKGQAkSaqQAUCSpAoZACRJqpABQJKkChkAJEmqkAFAkqQKGQAkSaqQAUCSpAoZACRJqpABQJKkChkAJEmqkAFAkqQKGQAkSaqQAUCSpAoZACRJqpABQJKkChkAJEmqkAFAkqQKjc3dQEE2BLYEJgP3A7cCS7J2NNg2WD6mABNI38XHgDnAPOC+fK111ljgacBTgTGkz3Y+6XN9FLgXWJStO/ViEvAMYFNgVOZeumYB6bhxG7A0cy+dUHsAGA0cDrwV+Av+/IrIQ8A5wMdJXyiN3NbAvsAewLTlY+Mh/jfzgBuAG4HrgIuA3+A/7BU2BHYHXgi8CNiWFGDXWcv/ZjFwB3AT6TP9GXAVKRwor4OAdwL7sPa/oYZ2P3AW8Angnsy9VGEWsKzPMbXlnjcHruyhr4XAP7Xc2yB4HvBp0pWUfr8bK8ZDwOmkg+WY9nalGE8H/pkUhhYT85kuAi4A/hHYpL1dacT19P957N9yz5OA7wb07XjymAcc0fufojVT6X/fZrXe9Vp0LQBsTvolNJz+Tmixv65aF3g78Fua/8d9HzAD2KyVPctnFLAf8D+kk3WTn+lC4FukKwtd1LUAMBH4eUDPjrWPd/b6B2mJAWA1o60AMJrefvmvOpYCr2ypx66ZCLyHdOmt7X/cjwMnAVs1vpftOwC4ljwHzcuAPZvfxVBdCwDfCujXMfRYTLq1UgoDwGpGWwHg9X30eDMwrqU+u+IVDP9qShNjPjAdGN/o3rZjGnAh+T/TZcC5pElpXdClALBHQK+O3scvKeepNwPAakZbAWAkv/5XHoe01GfptgR+RP5/2KuOmcCLG9zvJo0DPkCazZz7c1x5PEaae1DKAXRNuhQAvhnQq2N4o5QrWgaA1Yw2AsAGpEf7+unzCy30Wbr9yXO5v9exmHQ1oPQT1sq2oP9w2vS4mLLnXHQpADwU0KtjeOOjPf1lmldMAOjSATLC1vS/z20/rVCSUcDHgJ+QnlMu1Rjgg8D5pGfhS7c/6RJl6ZPv9iHNSXhR5j66bgqwUe4mKlTzsXu1agsAGwbUqPUf7ljgFOB4urNAyYHAFaTH50p1OPADhl4XoRRbApcCh+VupMMm5G6gUhNzN1Ca2gJAxImrKye/SOuSnlV+Y+5GRmAn0oz2bXI3shrHAKfRvYVfxgPfIYUXDd+DuMpoDvfmbqA0tQUADd8Y0oSlg3M30oeppMVunpa7kZX8PfA5uvtvcB3gG8CrczfSQYuBX+VuokLX5m6gNF09+Kgdo4AvAa/K3UiAZ5LmLmyQuxHgUOCrdP9q0hjSFYy9czfSQWflbqAyC4HzcjdRGgOA1ua9wJtyNxFoJ+Db5P3eb086aQ7KezieQnpnxjNzN9IxJwEP5G6iIp/Hz/tJDABak79gMJc/fjlwXKZtTwTOJr1xcpBsQJoTMAiLMLVlLnAUzgVow0wG81jWNwOAVmcj4Ey6NzmtVx8C9sqw3c8Dz86w3Ta8gPSIqHr3Q9JLmHxFc3P+QHp52JzcjZTIAKDVOZG0MM2gGgucSru/WF9Kmvg3yI4lXTlS704hvSr7F7kbGTCLgJNJa2vcnreVcg3KfUjF2RM4sqVtLSW9r/tR0szoyaQ3NbZxYt4W+BfaWR1sPVLgaGvS32zSo2ZzSK+bfTrt3HYYTTrovoD091Rvfkb6zPYmvVtjO9JCW12fJNq2BaTjyVWkW2135m2nHl1ZCnj/gD6vb6HPXEaTHk9qainOpcDlwLuAXVn9iX4M6eT8RtJM6SbXxZ9HO28RPK7BfVgG3AD8J/CXrHmxk8mkk8tJwG0N9/PmEX5O/erSUsCqVzFLAUcxAAyGv6aZE8ITpEud242gpw2B9wMPN9TbSSPoaTjWb7D3nwNvIIWm4RhNCgPXNdTXHeSZEGgAUBcYAFYzDAD5/Zz4k8EVpMfv+rUx6TJ6dH+P0+wCQR9soOdZwGsCehtF+rX+WAM9vjWgv+EyAKgLDACrGQaAvF5G7AlgKWlWePQ8k78h/oQ1I7jHFdYh3ZOM7PVi4idobkvMyXPl8fvgHnthAFAXGABWMwwAef03cQf/JcDRDfb6AuCPgf3eRzMTYl8T2OMy4EekhXeaMIEULiL7bftRSwOAuqCYAOBjgII0QezQwHrvAr4cWG9V15Ge7Z0bVG8zmjnwvyGw1o+AV5ImRTZhHuk7cGVgzaMCa0kKZgAQpMvq6wbVOhn4bFCttbme2LcTRj+jP4W4UHE36c17C4PqrcljwF8Rt2TqHkF1JDXAACCAA4PqzCT9+m/LmaSX6kR4GbH/Hg4BxgXUWUI6+c8OqNWLP5JWp4vg+wGkghkANBrYJ6jWMTR3iXpN3kvM/bCNgecE1FnhpUF1vkJaO6FN55LClaQBZgDQzqSTX78uAS4MqDNcDxF3yyHqpA0xl7+XAJ8KqDMSHyVNNurHrRGNSGqGAUC7BtX5dFCdkTiJmPvjuwXUgLR40fYBdf4buCWgzkj8Griozxo/i2hEUjMMAIo4Uf2R9GazXGYB5wfUifgsAKYRs477twJq9OPjff7vvx7RhKRmGAA0LaDGT8j/StOIALIdMSfuiDUtFgKXBtTpx4Wkv+1InEtaBVJSoQwAipipXcKB/rKAGpOApwbUiQgAV5Kezc/tCNJqhsNxK3mWApY0DAYATQmo8b8BNfp1CzHzACJem7thQI2bAmpEuJ/0mtqZPf73fwMcsPx/J6lgBgCt6fWxw3F3QI1+LSEt6duviAAwIaDGgwE1otxCmiz6Idb8yOVDwAeAF+Hsf6kTmlj/XN0SEQCiluTt16MBNSYF1IgIAH8MqBFpPjCd9IKnlwA7kl51/BhpVcZraX8NCEl9MABonYAauScArhDRR8TnEfHvqtST6RPAT5cPSR3mLQBJkipkAJAkqUIGAEmSKmQAkCSpQgYASZIqZACQJKlCBgBJkirkOgCSVIaNgYOBZwGbEPNiqposIC1BfSXp/SRL8rZTPgOAJOW1BfBh4O+BMZl7GRT3AicAXwGWZu6lWN4CkKR89gJ+CRyJJ/9ImwNfBL5LzPLeA8kAIEl57AL8gHTpX804BDgLr3avlgFAktq3DvAdYl7GpbV7GXBs7iZKZACQpPa9Adg+dxMVeR/eCngSA4Akte/vcjdQmQ2Ag3I3URoDgCS1azSwZ+4mKvSS3A2UxokRUr3GARMC6swHFgbUqcVTSZ+92rVF7gZKYwCQ6vKXwOuBfYDNAuv+EbgU+BZwLrAssPagWZy7gUotyt1AabwFINVhS+Ay4DzgtcSe/CH9qn01cDZwNbBNcP1BMot01UTtuit3A6UxAEiDbxpwLWnRmTa8ELgGeF5L2+uaZcCFuZuo0AW5GyiNAUAabJOB7xH/i38oG5FWYXORm9X7eu4GKnMXcFHuJkpjAJAG23HAtpm2vSXwwUzbLt05pJfWqB3/hhNVn8QAIA2u8cAxmXs4GpiSuYcSLSPNxbg/dyMVOBU4LXcTJTIASINrX/KvfjYOODBzD6W6izQv439zNzLAvgy8NXcTpTIASINrh9wNLFdKHyW6GXgBaanaBzL3MiiWAVcALwXego//rZHrAEiDa4PcDSy3Se4GCjcf+Dgwg/QExXbApvgDbbgWAHeTHkO9J3MvnWAAkAbXQ7kbWM733PdmKenkdXXuRlQHE6Y0uH6XuwFJ5TIASIPrctKqc5L0JAYAaXAtAv4zdxOSymQAkAbbp4Ff525CUnkMANJgmw+8Erg1dyOSymIAkAbfHaTHy87O3YikchgApDo8DPw1sDvwedLqc3OzdiQpKwOAngioMS6gRoTxATUiXhhS8md6Nen9ADuSlgkeNcSIeJmPL2GRCmQA0GMBNSYH1IgQ8dKZiM8jokbuNfxXiPjbeqVBKpABQBEH52cE1OjXOOBpAXUeDagR8ZluHVAjwjMDakR8ppKCGQA0O6DGjgE1+jWNmKWtHymkRgmfKcCzA2pEfB6SghkAdEtAjb0DavRrn4Aas4hZOe/mgBovACYE1OnHpsD2AXVuCqghKZgBQDMDauwPrBdQpx+vCKhxQ0CNHPodCgAADntJREFUqDrjgJcH1OnHoaSJgP26MaCGpGAGAEWcrCaRHjHLZUtg34A6UQHgRtKb3fp1RECN3NufS3pFq6TCGAB0TVCddxPza3Gk24545WzUa1jnA78NqHMI+eYC7A7sGVDnGmBZQB1JwQwAupGYX2i7AK8NqDNczwSODqp1cVAdgIsCaowGPhxQZ7hGATOCakV+ppICGQAEcQfp/wA2DKrVi1HAScC6AbXuJvZeddRnehgx8xuG40hgr6BaEUFIUgMMAAI4L6jO04Cv0d6tgGOBg4NqnR9UZ4WLgXlBtb4KbBFUayjTgM8F1XoAuC6olqRgBgABfI+4Z7UPJe4EsjaHAJ8MrPeNwFqQJr+dE1RrY+CHwAZB9dbkqaTvwsSget8GFgfVkhTMACCABcBZgfWOId1DbupKwF8BZxKz8A+ktRCuCqq1stMCa+0E/Jh0km7ClsAlwLaBNb8ZWEtSoWaRZvr2M6a20Of+AX1e30KfObyQ/j+bVccZxL4nYDRwPOlXZWSfxwX2uLIxpHAR2etNwPOC+9wLuCe4z58H99iL6/vod8XYv/WuVZup9P89jViwLIwBYDBcQOxJYBlwK/CXAb09m/QLNbq/2TT7MqO3NNDz46S39D2lz94mAZ8CFjXQY451IQwA6gIDwGqGASC/fYk/EawYlwAHMfzn9XcB/otmTlLLgBOG2c9wjSc9YdBE73cB/8zw34K4Memqx4MN9fV78txeNACoCwwAqxkGgDL8lGZOCivG3cAXgNcAO/Dn770fTXoL3kHAx4BfN9zLH2nnscUmrgKsPB4HzgbeTrqVs/4q29+QtLDPsaSnHZ5ouJ9cq0IaANQFxQSAqElas+h/hvI2pMvFTXoJcGmfNZZQzutNHyX9CvwpcDoxL6GZRjrxjhvqvxhoAekX/qQWtwnwZuDUFrYzmrTK4Ata2NYKK76n69PuCo0/Bg5scXsrux7Ytc8aB5D+PbVtIvA60poPzyK9iCnXyppdtQC4jzSh9wzgsrztrNFU+n8J22zaXXNlrbpyBeB5AX2WOp4gLYrT731hgI8XsD9Nj2tp9zL1rsRPXixtLCTm7YEj1dUrAK8H7h9hv441jwtIVxRLU8wVgChdCQAbBfRZ+riGJ18CHq51gd8UsC9Njbmk2w9tG/Rg9a64j2pEuhgAPhbQs2PN40H6vyoUzQCwmtFGAIA6kvaP6P/X7bakS8i596WJcUSfn81IjSVdlsy9/02M88h/ybprAeCtAf06hh73AJv3+DdpQzEBoMaFgEq9LxTp5aTLiv24iXSAGjSnkp4qyGExcDjpV8kguR14A+nApN5sQtwLl7R2m+NnvVo1BoCode9L928BNU4H3h9QpxQXkmbK53Q3aV2ExzL3EeUh0lMbRV2S7IBjaX/Sa80Op8z5AFnVGADOZnAOvmuzHTHvkv8I8JmAOrldT1pCeGHuRki9vJIyeunHfNJ+zMzdSAcdlruByowmfVe1khoDwFzgS7mbaMnOQXXeDZwcVCuHa0iPps3N3chKLgb+hvQMfxfNIb2J8crcjXTQePI+LVGrXXI3UJoaAwDAicS9/a5kmwbVWQq8jebWzG/ST0nPdj+cu5HV+D5p9cUSe1ub+0l997umRq02Jv+EyRptkruB0tQaAB6kmyez4Yq+LzsDeBPd+dX6edKv1JJv+VwD7A3ckLuRHv2CtKrgL3M30mGzczdQKeeprKLWAADwZeLe116qGxuo+VXSc7W/b6B2lMdIq6odQ1phsHS/B3YjTbos2WnAi0mz/jVy80mPpqldTRwPRbfWAVjZROC6EfZb+rifZgPeJNLKg6WtbncBaVnprnoDzb2kZ6TjTtIEytJ1aR2AkwN6dQxvPLenv0zzilkHIEpXAwCk+3HX9Nhjl0ZbtzieS5oIlnt/7yWdPAfB+sBnyR+uFi3voyuPq3UpAGxPc2+4dDx5XNzbn6UVBoDVjFwBAGAC8K019NXF8XvScr5tGUV6iUmOIPUA8F5gvcb3sn3PBr5B+yeKhcu3u13zuxiqSwEA4D8C+nUMPeYR90RUBAPAakbOALDCILyU4z7S28RyORA4l3QSaXI/rwKOJj1SNei2If0Sb/rWwN3AJ4At2tmtcF0LAGNJC5PlPmYM8niC9LhtSQwAqxklBACAycDxpEvKub+8wx2XUc7Be2PSJLyfkBJ4v/u2mPQGvw/RvV+mUdYBDiFNxov6ft4OnEI68XV9UnDXAgCkEHAi3g5oYtwJ7NPzX6I9xQSAqGdRZwEb9FljG+DWgF6ijAH2Iy1z+mJgGmnSYGnmkZ51/zrpl3eJxgEvAvYk3fucRrpKsfEa/vtzSe/LvoE0c/c60jPncxrvtFumkR4h3In0uW4HPJ10UlnVIuAu0uc5E/gtcAll/Zvr1/X0/+a3A0j/ntq2A/BPpFtppYT4LlrxQ+EM0pNeJT6yPJV0fOvHbGDDfhsxAAzPBqQrBGNyN7LcHLq3iMyqJpOC1VjS43uPkBKuRu4ppM90Muk7MpfuLzvciy4HgJWtC2yGiwUN1wLSnKAluRsZQjEBYHW/FLRms3ERj2iPLh+Ks2D5eCh3IxqRx4Hbcjehwdf1e36SJGkEDACSJFXIACBJUoUMAJIkVcgAIElShQwAkiRVyAAgSVKFDACSJFXIACBJUoUMAJIkVcgAIElShQwAkiRVyAAgSVKFDACSJFXIACBJUoUMAJIkVcgAIElShQwAkiRVyAAgSVKFDACSJFXIACBJUoUMAJIkVcgAIElShcbmbmAlewJTczchqbMmB9RYFlCjH5OAZwCbAqMy99I1C4D7gNuApZl76YSoAPA4sEGfNb4R0Ygk9WF+pu0eBLwT2AdYJ1MPg+J+4CzgE8A9mXspWtQtgNlBdSQpp7aPZZOA7wI/AA7Ak3+EzYBjgBuBIzL3UrSoAHBLUB1JymUJcHuL25sIXAIc2uI2a7Ie8HXSlRWtRlQA+GVQHUnK5Q+k+8ht+TLw/Ba3V6sTSbdWtIqoAHBxUB1JyuWiFre1B/C6FrdXszHAp/GptyeJ+kCuIM2+lKSuOrPFbb2txW0JngvsnruJ0kQFgCWkey2S1EU3AD9rcXsHtrgtJQfnbqA0kZdEPku+R2gkqR8fp701AKYAG7W0Lf2J68ysIjIAPADMCKwnSW34BfDNFrc3ocVt6U8m5m6gNNGTImYAvwmuKUlNWQj8A+k2ZlsebHl7Su7N3UBpogPAQuBvgUeC60pSE95JugLQpsXAr1repuDa3A2UponHIm4AXklaHliSSjUDODnTts/KtN1aLQTOy91EaZp6LvIy4GW4RLCk8iwDPgAcl7GHk0jzptSOz+Pn/SRNLoxwBbAbcF2D25Ck4ZgFHAZ8OHMfc4GjcC5AG2YCJ+RuokRNr4x0K2nFq3eS/uFJUg4r1irZgfTynRL8EPhHYFHuRgbYH0hvWpyTu5EStbE04mLgM8DWwLuB37WwTUkCeIh0uX0H0i/uB/O28ySnAPvS/kTEQbeINL9jd9p9wVOnjMq03W2BvYFdSIszTAGekqmXJkwFNuizxh2kg5ek3iwBHgXuIl32vYI083txzqZ6NJp0THwFsB2wKfmOz121ALgHuAo4G7gzbztrNJX+36A7G9gwoBc14AzSRKN+xtGtdy1JatpU+j8/hNxS9+1IkiRVyAAgSVKFDACSJFXIACBJUoUMAJIkVcgAIElShQwAkiRVyAAgSVKFDACSJFXIACBJUoUMAJIkVcgAIElShQwAkiRVyAAgSVKFDACSJFXIACBJUoUMAM1YGFBjfEANSVJZ1g2osSCghgGgIY8F1JgSUEOSVJaIY3vEOcYA0JC5ATWmBtSQJJVlm4AajwbUMAA05OGAGs8JqCFJKkvEsX1WQA0DQENuCqjxPGD9gDqSpHLsG1DjxoAaBoCG3BBQYwxwaEAdSVIZtgKeH1An4hxjAGjIzcDigDpHBdSQJJXhCGLOuzMDaqhBVwPLAsYebTcuSQq3HvAA/Z8TFgGTIxryCkBzLgqqMwMYFVRLkpTHe4FNAupcT9BTAGrO/sRcAVgGvLnl3iVJcZ4NPE7M+eBjLfeuERhPehww4g8+Dx8LlKQumgj8jrgfhC9qt32N1MnE/dHvBLZst31JUh/WAX5E3HkgZPa/2rEHcX/4ZcBtwPat7oEkaSQmAOcTew7491b3QH0ZBfyK2C/AQ8Ahbe6EJGlYpgG/JvbYvwB4eps7of79LbFfgmXAUuC/gE1b3A9J0tqNB95HmrcVfdz/Yov7oSBjSIs2RH8ZlpG+ZJ8BdmhtbyRJq9oEeDdwD80c6xcBz4xu2ufL2/Fq4MyGt/Fr4ELgOtJEkVn4rKgkRVuPtBDPdsDOpLX99wLGNrjNLwBvjy5qAGjP+cDBuZuQJHXKg6Q5BbOjC7sSYHuOJU3ikCSpV++hgZM/pPvTascs4DHgoNyNSJI64TzguKaKGwDadQ3pnpGT9iRJa3MncCBpCeFGOAegfesD1wLb5m5EklSkx4G9SZO6G+McgPY9ArwcuC93I5Kk4iwBXk/DJ38wAORyGykENDKxQ5LUScuAtwBnt7ExA0A+vwUOID3iIUmq2xLgrcCpbW3QOQD5TQV+DDwrdyOSpCwWki77n9XmRr0CkN+twEuAS3M3Iklq3Z2kCX+tnvzBxwBLMRc4jXT/5yV4ZUaSanAe6VG/m3Ns3BNNeV5CWvd5x9yNSJIa8TBwPHAK6YdfFl4BKM8dwFdIqwbuDozL244kKchS0iS/w4ArMvdiACjUUuBK4MukBSF2BtbN2pEkaaSWku7x/y3wVWB+3nYSbwF0w2TgKODvgV0z9yJJ6s1dwOmkH3O3Ze7lSQwA3bMjKUXuB7wQWCdvO5KklfweuAg4h/R019K87ayZAaDbJgB7ADsB2wPbAU8HJi4fk/O1JkkD6XHSk1uPAQ+QZvDPXD5+tvw/64T/D4qWaVpKo3Z2AAAAAElFTkSuQmCC;" vertex="1" parent="1">
          <mxGeometry x="180" y="210" width="60" height="60" as="geometry" />
        </mxCell>
        <mxCell id="F8dkFaMJh0N_z7n8UZEi-2" value="" style="endArrow=classic;html=1;rounded=0;" edge="1" parent="1">
          <mxGeometry width="50" height="50" relative="1" as="geometry">
            <mxPoint x="240" y="240" as="sourcePoint" />
            <mxPoint x="320" y="240" as="targetPoint" />
          </mxGeometry>
        </mxCell>
        <mxCell id="F8dkFaMJh0N_z7n8UZEi-3" value="" style="shape=image;verticalLabelPosition=bottom;labelBackgroundColor=default;verticalAlign=top;aspect=fixed;imageAspect=0;image=data:image/png,iVBORw0KGgoAAAANSUhEUgAAAgAAAAIACAYAAAD0eNT6AAAABHNCSVQICAgIfAhkiAAAAAlwSFlzAAALbgAAC24BLbeFvAAAABl0RVh0U29mdHdhcmUAd3d3Lmlua3NjYXBlLm9yZ5vuPBoAACAASURBVHic7d13uGZVeffx700TlKYiGoqCxigIxtgFFFAsWDFiRezGlqjEhi2xYO8tUWMCigQM8goKAhZAQMAYFEFFAQXbIIgi0gSZud8/9j7D4TBz5pyz1y7Ps7+f63oulJlz7zWFc//22nutFZmJJktEvA14c9/jWKRTMvMhfQ9CklQJA8DkiYhzgbv3PY5FWgFsnZnL+h6IJAnW6nsAWpyI2IHJa/5Q/V17Ut+DkCRVDACT58l9D6CBp/Q9AElSxUcAEyYifgxs1/c4liiBrXwMIEn9cwZggkTEPZjc5g8QwN59D0KSZACYNJM8/T9jGn4NkjTxfAQwQSZ8+n+GjwEkaQCcAZgQUzD9P8PHAJI0AAaAyTFNU+fT9GuRpInkI4AJERE/ArbvexyFJNWmQL/peyCSNFbOAEyAiNie6Wn+UD0GcFMgSeqRAWAyTOOUuZsCSVKPfAQwASLih8A9+h5HYT4GkKQeOQMwcBGxHdPX/MHVAJLUKwPA8E3j9P+Maf61SdKg+Qhg4CLiHGCHhmVOAU4rMJzZtgL2aVjDxwCS1BMDwIBFxN2BcwuUekhmnlKgzkoRsQFwKbBhw1KvzMyPFBiSJGkRfAQwbCWmyJcB3y5Q5yYy81rg6AKlXA0gST0wAAxbiQBwRGauKFBnVf6nQI0HRcRWBepIkhbBADAwEbFeROwRER8HdixQ8vACNVbnWODKhjUC+K+IeEZE3LrAmCRJC+A7AAMQEZsDjwYeCzwC2KhQ6WVUL9m1NQNARBwCPKNQueVUjyuOBo7OzBLvP0iSVmFqA0BEbJSZTe9OWxMR21A1zscD96Od2ZiPZebLW6i7UkQ8ATiypfI/pwoDh2Xm6S1do7Gh/12TpFWZykcAEbEj8LOI+EZE7NL3eGZExC0jYt+IOIGqub0DeADt/Tm0Of0/43iaPwZYnTsDLwdOi4ifRMT+EbFlS9datIi4Y0R8Erg0Ip7b93gkaTGmbgagbv7fBG43619/E3hLZp7a05h2Bp5L9cZ7qen9NWl9+n9GRHye5nsCLNRy4OvAgcBRmXldR9ddKSLuCLyB6s90vfpfrwBekJkHdj0eSVqKqZoBWE3zB3gYcEqXMwIRsVFE7BcR5wGnAs+nu+YP7b79P1eJ1QALtTbwKOALwMUR8ZH6cUrrZt3xnw+8iBubP1T/LX3GmQBJk2JqZgDmaf6r0tqMQERsQTVt/SJg09L1F6H45j+rExG3oNoUaOMurrcKy4EvAu/LzDNLF1/NHf/qOBMgaSJMRQBYZPOfrVgQiIgdgFcDT2fNTaJtnU3/z4iIg4FndnW9eZwIvA84Lhv+5V5k459tBfD8zDyoyfUlqU0T/wigQfOHAo8GImKXiDgWOAd4Nv03f+h2+n9Gl48B5rM78FXg7PqFy0X/HV/DVP9CrAX8Z0Q8Z7HXlqSuTPQMQMPmvyoLnhGIiO2BdwOPK3Ttkjqb/p8REetRPQbYpMvrLsAPgf0z85g1/cQGd/yr40yApMGa2BmAFpo/LGBGICK2jIjPAGczzObfyt7/a5KZ1wNHdX3dBdgBODoivhURD1jVTyhwx786zgRIGqyJDAAtNf/ZbhYEImKTiHgnVZN4PtXb6EPUx/T/jKE8BliVhwBnRMQXI+JvoNXGP5shQNIgTdwjgA6a/6qcAmwP3LbDay5V59P/M+rHAJfQ7+qHhbgBOAHYje7e2VgBPC8zP9vR9SRpXhMVAHpq/pOk87f/54qIg6hehtTNGQIkDcY6fQ9goWz+q3UD1QqEM4Aj+2z+tXcCF1NtcXw/YMN+hzMoa1GdfIghQFLfJmIGwOZ/E9cDp1H9fnwLODMzr+l3SKsWEWsD9wB2pnqvYnfgNr0OahicCZDUu8EHAJs/CZxF9XvwDeCUoTb8NanX5N+bKgzsAewCrN/roPqzAnhuZn6u74FIGqdBB4ARN/8rgCOoTto7ITMv63k8rYiI9almB/agOijpzv2OqHOGAEm9GWwAGGHz/wtwHHAw8OU+TrnrW31q4r7AUxn+SoJSDAGSejHIADCy5v+/VE3/sGm901+s+nChxwLPAvYE1u13RK0zBEjq3OACwEia/2XAp4DPZeZ5fQ9myCJiM+BpwEuo9mKYVoYASZ0aVAAYQfO/CPgA8F+T+iJfXyIiqLZefh2wU8/DacsK4DmZeXDfA5E0/QYTAFpu/svpd+vec4D3AF/IzBt6HMdUqLdnfh3wGCB6GkZbf6cMAZI6MYizAFpu/tdRPU9+cH2NLp0CPCYz75mZh9j8y8jMUzPzccCOwOeoXqDsys+oTgv8a+CCFuqvBRwUEfu2UFuSVup9BqCD5r9XZh4363q7AG+hWovelu8Ar8rMzk/lG6OI2Bp4G9UWxG3NCPwMOAD4/EyQi4itgBOpwkBpzgRIalWvAaDr5j/n2g+mCgIPLXjNi4H9gYOz72Q1QhFxf+CjVNsQl3Kzxj/nmoYASROptwDQZ/OfM44SQeB64MPAAZl5ZYM6aqh+WfBZwLuBOzQoNW/jn3PNtkPAszPz8y3UljRivQSAoTT/OWN6CFUQ2H2R1zsG2C8zz1/k16lFEbER8GbgFSzuyN8FN/451zMESJoonQeAITb/2RYRBM4HXpGZxy71WmpfRPwN1ezMnmv4qUtq/HOuZQiQNDE6DQBDb/6zRcSuVEFgtzk/dAPwfuCtmfnnEtfqSn063yZUR/TOfDaa87/XojqLYPbnTzP/zMzl3Y+8uYh4OtX7AZvN+aHGjX/OdQwBkiZCZwFgkpr/bHOCwPeA52fmWaWvU1JEbA7cbRWfOwPrNCx/FVUYuAA4e9bnh0Pf3Cgibgd8BHg6hRv/nOu0HQKelZmHtFBb0oh0EgAmtfnPFhF/B5w9tDvg+kS9naiWNe5KtV3urXsYygqqpjoTCM4BvpOZy3oYy7zqP8tz2tyXwRAgaehaDwDT0PyHpJ7Gvy9Vw38o1XG66/c6qPl9Dzga+Apw5piWR7YcApZTPQ4wBEhaklYDgM2/jIhYj2rb232APaie40+ii6lWTRwNfH3ojwxKMARIGqrWAkC9DOtn2PyXLCIeCOxLdRrebXoeTml/pmqMhwOHTtoLlYvRQQjY1V0nJS1W2zMA36D8lrtT3fwjYhvgmVSN/296HUx3Zo5H/rchvjNQQosh4A/Atpn5p8J1JU25tgPALlQH4pQytc2/3sb2TVQHF/V1wl3f/kI1I/DhzPxu34MpraUQ8ObMPKBgPUkj0cVLgKVmAZZTnax3fIFag1EvM3wT1bN93eh0qiV7R0zTKYp1CDgVuFOBct79S1qyLo4DfkuhOmsDVxeq1buIeFREnAqchM1/VR4EHAZcGBH/EBGDOLq6gD8AGxSq9SGbv6Slav2bamaeSrUSoIS3FKrTm4h4ZET8H3As1RI+zW8rqvcDzqxnSybdS4HNC9T5A9XOhpK0JF3dVb2lUJ2H1e8VTJyI2DoivggcB9yn7/FMoHsBJ0XE4fWLkhMnIm4JvKZQOe/+JTXSSQAY8yxARKwbEa8FzgWe1Pd4psDewLkRcUBE3KrvwSySd/+SBqPLswBKrgh4SGaWXF3QiojYHfgEsF3fY5lSy4D9qfbzH/QOg3VYuZAy+2L45r+kxjp7sWpMswARsVlEHAKcgM2/TVsAnwOOj4jb9z2YNXgpZZq/d/+Siuj6zeq3FKrz0Ih4cKFaRdUzHd8HntH3WEbk4cBZEVF606ki6rt/n/1LGpROA8A0zwJEZX+qjV626ns8I3QH4GsR8bb6wKQh8e5f0uB09g7AyguWfRdg18w8uVCtJYuIzaimovfseyyrcQPVuQw/rT8/B64ArlzF5wZgw1mfW9X/3Ay4M3CXWZ8+jh1eiJOBZ2Tmb/oeiM/+JQ1V5wEAiu4OeGJmPrRAnSWrA82hDOeu/zrgDKr3D86iavg/a2M3vYi4NbADsEv92ZnhnFR4GdVJeV/tcxD1CpD3FCjlrn+SiuorAEzFLEBEvBJ4H7BOH9ev3QB8l6rhnwiclpnX9jGQere+HanCwJ5Uz+bX62MstQTeD+yfmSu6vrh3/5KGrJcAAJM9CxARAbwXeHWX150lgW9TPXY4PDP/2NM45hURmwCPo1q7/0hg/Z6G8gVg38z8S5cX9e5f0pD1GQBKzgLslpnfKlRrXhGxLvCfVMf1du0C4GCqde8/7+H6SxYRGwKPB14G7NTDEL4K7N3V7Eh9938R1bsTTXn3L6m43gIAFJ0FOCkzdy9QZ171N/UvAo9q+1pzHAO8ZxI2P1qIiLgf8ArgKcC6HV76ZOBxXdxJR8TrgHcXKOXdv6RW9B0AJmYWoH7T/xjg/m1dY44EvgQckJnf7+ianYqILaiWyL0M2LSjy54JPCozL2vrAvVsx4V49y9pwHoNAAARcTJQYlOf1mYBIuKOwNeBv2mj/hwrqJ5ZvyMzf9TB9XpXryZ4A/BPwC06uOS5wMPbWiZY8O7/amAL7/4ltaHvGYBNqNan37ZQyXuXvluu7/y/TTfN/1TgpZl5TgfXGpw6aL0deCbtb1J1EVUIuKBk0foF0WVUGxOV8KDMPKNQLUlaqeutgOd6HeWa//eAswvVAlY+8z+G9pv/74DnUh1yNMrmD5CZv8zMZwN/B5zU8uW2Ab4VEVuXLFofSvS5giXfWbCWJK3U5yqALYHzgQ0KlLsBuF9mnlWgFrDybf8v0+4LfyuA/wBen5mXt3idiVPfSb+Yarnlhi1e6mxg58y8qlTBiNigrvvXhUo+IjO/XqiWJAH9zgC8lTLNH+D9hZt/UC31a7P5XwDslJkvtvnfXFb+nWpjoRNavNQ9gcPqTYyKqJcavpDqRc4S3lGojiSt1EsAiIjtgecUKnc+VZgo6b20u87/UKr3Fb7T4jWmQmZeBOwBvAQodpc+x2OAD5QsmJknAZ8pVO5+EfHEQrUkCehvK+AvU+0QV8KjM/PYQrVmtvf9UKl6c1wLvDwzSzWGUYmIewBHUR1E1IaXZOYnSxWLiNtSBdQShyb9GNixjy2NJU2nzmcA6rX/pZr/MYWb/y5Ue/u34Vzg/jb/pauXRd6faklmGz4WEQ8vVSwzf0+5Y6u3p1odIUlF9HEc8LGUebZ+PbBDZp5foNbMcr/v086pfl8FnpKZV7dQe3QiYm2qoLZfC+WvoHo348clikXEOsAPqBp4UxcBd8vM6wvUkjRynZ5iFxE7Uu7Fug8XbP5BtXSrjeZ/MPC8No7jbSIibgNsCWxE9Zb9RvUH4Pf157L6n5cvdeq5Xk1xO+D29Wdz4JaNBl85D/gWsGuBWrNtAhwdEe8tWPN7lAkA2wAfiYgfFKglqT1J9b3z4plPX6e0zqfTGYCI+CzwrAKlLqa6E7qyQC0iYn/gXSVqzfFB4NXZ425Ldbi5D7AbcHfgbvVnMUfUrqDak/4c4H+B7wDfycxlc661GbAz1XHAu1Dtn3BrIBr9IiRp8l3BrEBAtS35kX0e7NZZAKjX/V9ImcNfnp2ZRTZbqZ/7n0j52ZD9M7PEUbCLFhHrAbsDT6A6gW/Lli71G6owcDnVCX93x2YvSYtxNtW5L0eWXM6+EF0GgPcBry5Q6jtU26M2HniLz/1flJmfLlxzXhGxKbAnVdPfE9i4y+tLkhq7CDgS+H9dnP7aSQCIiI2BX1GmKe2Smd8uUIeIOAR4Rolas3R2519P7z8FeAHVs/Auj9aVJLXnVOA1bZ4F0tUywH+gTPM/pWDz353yzf+DHTb/3ahmQw6j2ijH5i9J02MX4PSI+GJEtHIeTeszAPVd6gXAnQuUe0xmfrVpkfrN9B8A2zUf0koHU72b0OpvaL0Zznuodq+TJE2/G6jOjXlrZl5SqmgXMwAPpkzzP6dE86/tR9nm/1WqpX6tNf+I2CIiPkMVXGz+kjQe61Bth35BRLy53l+ksS5mAA6kzL7/z8zMQ5oWqY9/PRe4VfMhQV3rfm1t8lO/P/FaqtBSYv28JGmyfZNqc7k/NCnSagCIiA2p1js2Pc71IuCuJTbTiYgvAk9qWqd2LdX2vj8sVO8mIuK+VMtD2tigSJI0uX4GPL7JrqVtPwLYmzJnuX+gUPN/JOWaP1QH+7TV/J8OnIzNX5J0c3eheknwsUst0HYAeG6BGpcB/1WgDpQ9V/3QNg72iYi1IuKdwH8DG5SuL0maGhsDR0XE65byxa0FgIi4M9ULgE19KjOvKTCeR1FtiVvCBcCLCtVaKSI2otoE4vWla0uSptJawLsj4vOLfTmwzRmAfSizLWyRLX+BNxWqs4LqhcQi5xDMqAPT6ZQ7KlmSNB77UJ0/s2BtBoASjex/M/O8pkUiYleqQ2pK+I/M/E6hWsDKTYn+F7hHybqSpFH5p4h44UJ/cisBICLuANy3QKmDC9SAcnf/v6Pw9Hzd/L8G3LZkXUnSKH0iIhb0+L2tGYBH03z6/y9U29w2EhH3p9oqt4TXZublhWrNTPsfTvmTCCVJ47QucERE3GlNP7GtxrPkZQmzHJeZlxWoU+ru/1Tgs4Vqzbzw92Wm987/L1THLH+fai+IZbP+2filTklajWcAH+joWlcCxwM/pfreNvN97rfARsBfAVvUn62obkZb2dd/jttRrQ7Yeb5N6opvBBQRt6Bautd0/f9TMvPwhmPZBvg5zWcjVgD3ysxzGtYBqqV+VG/7d/XC3wrgPODuLV/nauA4qs2Ljs7MK1q+niStFBGbAz+m3RurS6lu3o4EvpGZ1y3miyNie+CJwF6UeVQ+nyMyc+/V/WAbjwB2o3nzv4LqN7ipZ1JmJcIXSjX/2gF00/x/AbwF2JZqy+K2/Al4M3D7zNw7Mw+x+Uvqwcdor/n/Eng28FeZ+cLMPGaxzR8gM3+cme/IzPsB2wNHlR7oLE+KiCes7gfbCABPLFDjiKX8xq7CvgVqJAU3EKp3+Gt7nf83gUcAd87MtwJ3pcyfy1zXAx8F7pKZB7R1HoIkrUlE7AU8pYXSl1Odx3K3zPxcZq4oVTgzz83MvahWqRU56n4V3h0Ra6/qB4o8AoiIv6X6jX8yVbNp6qmZ+T8Nx/RAqnX1Tf2/zCyyfXC9t//JtLfD38+BV2XmkbOuuQ5wFuWXGJ4BPCMzLyxcV5IWJSI2pZr6/6vCpQ8FXlby5e/5RMRTgM9QvT9Q0osy89M3u95SA0Dd9J9M1fhLNP0ZCWze9AXAiPgE8NIC47l3Zn6/aZH6VL8f0c7e/lcB7wQ+OHfmJCL+kWparKTPAy8oNEsjSY1ExCcpuzvrCuBNmfmugjUXJCJ2oHoEvm3BshdTHah3k1naRQWAiLgnN97pt/Um4/cz895NCkTEelS/4Ns0HMsxmVliRQMRcQDwxhK15jgTeGJm/moV17wN1bbFty50rRXAGzLzPYXqSVIj9b4zvwDWK1TySmCfzPxKoXqLFhGbAUcADylY9l8y8+2z/8UalwHWTX/mTr+L5QvfLFDjMTRv/gBFGl1EbAHsV6LWHJ8HXpiZf17Nj7+Acs0/gac3fTQjSYW9lHLN/4/AQwq/9L1omXlZROwBfIFy72+9JiI+lZmXzvyLVb4EGBH3jIi3R8RPgB9QraXvovkDfKNAjX0K1LggM08pUAfgbcAtC9UCWE71rH/f1TX/iAjgHwpe8402f0lDEhHrAy8uVG458LS+m/+MzPwL1Uq2xo+gaxtRrdZaaeUjgIjYkRun9+9W6IKLdT1w6yan/9VvO/4e2KThWP41M9/WsAYRcQ+qELXKtzCX4Dpgr8w8bg3XfTjVFsMlHJKZzyxUS5KKiIjnU700V8I/Z+aHCtUqJiK2pjor5g4Fyl0B3K4OF6wVEW+r7/TPprrT76v5A5xW4Ojf+9K8+SfV9HoJ76Fc818B7Lum5l8r9ULMd6geJUjS0LyyUJ2Dhtj8Aer3u55IdfPX1CbA7jP/Zy2qKYE+m/5sJab/H1agxrcz8+dNi0TEblTvI5TyioXsjli/FLPazR8W4S9URx+v7h0DSepFfZDaDgVK/YYyK8Zak5lnAKVWJKzsDW0eB7wUJxeo8dACNT7XtED9DP69BcYy452Z+fEF/tx9KXPOw6cz84ICdSSptFI3V2/OzGsL1WrTB4BLCtR5Qt2fBhUAbqBa0rZk9QshOxcYR6MzCGpPAe5XoA7AkZm5mCWEu6/5p6zRVVQvL0rSEJWY7T2Hgoe8tSkzS31P3hK4DwwrAJxT4Pn/TsD6DWt8NzP/2LAGlHtu/kfgJQv9yfVBQzsVuO77Zy8XkaShqNfJ/22BUq8rubVvBz4NnF+gzl4wrABwRoEaJRLhCU0L1NtS7lpgLFC9mfrbRfz8HWn+EuSfgQ82rCFJbXkozQ96+15mHltiMF3JzBuA9xUo9QQo85y4hGVURys2VaLpnligxp7AugXqfD0zD1zk1zy40HWvXMoXRsS2NP9z+FKT0wQj4o6UeRdEUlnXZuYXCtQpcbP3pQI1+nAU8Ema3cDvEBF37DMALKPa6vBwqrfuS0zDbN/w668DTiswjhJv4F/H0jbyKREAmvyH8QBgsaFlrjOo1qsu1b0LjEFSeZdQ7W7XVIkAUOKms3OZeWlEnE7z993u3HUAaKPpAxARm9N829szmr4NWp9DsGfDcUC1+c5FS/i6Bza87nKqgygkaXAi4pbAXRqW+Xlm/rDEeHpyFM0DwBZdBIDWmv4cJfYyaPz8n+oN/I0L1FnqphRNd4s6OTN/37CGJLVl8wI1jipQo09H0XyZeWsBoKumP1uJAHBWgRolpv+/sZR0GhEb0fxQjB80/HpJalOJAHB2gRq9yczzIuLPNFv1VjQA9NH0ZysRAH7a5IvrzRUeX2AcS30D/7YFrn1xgRqS1JbbF6ixrECNvl0MbNvg64sEgFOozrnvo+nP1jQA3AD8rGGN+1BtstDERcBC9vpflRIBYBr+w5A0vUrMAEzD97llDCAAnFbw2NwmmgaAn9VrLJvYreHXQzX9n0v82tsUuL4zAJKGrEQAmIbvc01/DVsMaSOgJauPAL5zwzKNpv9rdy9Q46QGX+sMgKRp1zQAXD8lLzo3/V49HQGAaue7prMZJQJAifcQTmrwtU23QQaYhEMxJI3XBg2/flq+xzX9dWwwLQFgwwI1Gh//S/MAcH5m/qbAOCRJmpcB4EZNdp4jIm4D3K7hGEochyxJ0hoZAG60pL3vZ2n69j/ALwrUkCRpjaYlAGxUoEbTAFBiDB6/K0nqxLQEgCHMAJQYgwFAktQJA8CNnAGQJI3GtAQAHwFIkrQIXR8H3Ja1+x5AIdf3PYACvkKz7SkBmi6F/FqBMUgqb3nfA9CNpiUAXFOgxu2A3zb4+hI7S92aCV8JkJlXA1f3PIZrqM5UkCStxrQ8AijRcJqu4b+swBhK7OUvSdIaGQBu1HR/6RIzAAYASVInDAA3GsIMQIlTriRJWiMDwI2aBoDLgRUNa/xtw6+XJGlBDAA3anT3nZkJ/KHhGO7b8OslSVqQaQkATdfwQ/MZAGj+GGDHiLhFgXFIkjSvaQkAy4AbGtYo8fz9nIZfvy4+BpAkdWAqAkBmLgd+2bBMiRmAEsf5PrZADUmS5lUiAGwVERsUqNPUzxt+/VACwNMK1JAkaV4lAsA+wKURcVhE/H2PYeDChl9/64jYuGGNc2j+IuBdI+I+DWtIkjSvUo8ANgSeChxBf2GgaQAI4CFNCtQrAU5tOA6ApxeoIUnSarXxDkBfYaDpIwCAhxaoUeIxwPMKzEZIkrRabb8E2GUYKBEAHlagxrcK1Lg1sF+BOpIkrVKXqwDaDgNn0/w43R0jYrOGNb4PXNqwBsB+EbFpgTqSJN1MX8cBz4SBpwJXRcQxwFsz89ylFszM6yLie8ADG4wrgN2BwxuMY3lEfAZ4Q4NxAGwCvAZ4Y8M6nYqIOwI79T0OSYN0bWYe1fcgVOkrAMw2EwYuAvZvWOt0mgUAqN4DWHIAqH0KeB2wdsM6r46IwzKz6QZDXdoJOLTvQUgapEsAA8BADGkjoKaNG6oA0FTj9wAy85fA0QXGsh5wUEQMIahJkqbIkALAfSOi6R3zaQXGcdeI2KpAnX8rUAPg3jR/nCBJ0k0MKQDcCtihSYHM/A3wqwJjKbEc8OvA+QXqALwpInYtVEuSpEEFAIBdCtT4doEajQNAvSnQvxcYC1SHBB0ZEfcoVE+SNHJrAacAK/oeSK3EOvwSz973iogNC9Q5EPh9gToAmwLHRsQWhepJkkZsrcx8CLA18HKqbWyzx/HsXuA9gGOAvzSssQnwvIY1yMw/Uq0GKGVrqhBQ4uhiSdKIrQWQmcsy82OZ+WBgK+AV9BMGNgUaHYRTN92TCozllQXCCMB/UeblxBn3BE6PiLsWrClJGpmbvQNQh4GP9hgG9ihQ48gCNbYF9mpapH4X4KXA8sYjutGdgdMi4kEFa0qSRmTelwDnhIGtqcLAt2k3DJR4D+BIyozxnwvUIDN/AHysRK1ZNgO+GREvKlxXkjQCC14FkJm/qcPALlRh4JW0EwZ2bno+QGYuA75bYCw7RcQDCtQB+BdgWaFaMzYAPhkRX6+34JUkaUGWtAywDgMfmRMGTqNMGLgFZZYD/k+BGgCvKlEkM6+k+n1qwx7AD4EntVRfkjRlGu8DMCsM7AzckWoDnKYeXqDGZ4HrCtT5+4i4U4E6ZObhwEdK1FqFjYDHtlRbkjRlim4ElJm/Bg4qUOrJERENx3IZZWYB1qZ696GUVwHHF6wnSdKitbET4LE0f+N9G8o8Bii1H/8LImKTEoUycznV6Yc/KVFPkqSlKB4AMvNyymzHu2+BsZwBfL/AWDYC3lWgDgCZeQXwOOAPpWpKkrQYbR0zezTwkIY1nhIR/5SZTZ/j/xvwHw1rALw4Iv4nM08qUIvMvCAi9ga+Rnt/Dn04Btiu70FIGqQb+h6AbtRmAHhvwxqbAI8HDm9Y57+B99f1mgjgMxFxz8y8pmEtADLzxIj4B+AzDO9gY4AsBAAAHxBJREFUpiWpVzv4eEOSBq6VppOZ5wI/L1CqxGOAayj35v1dgHcUqgVAZh4I/D1wbcm6kiTNp827zhKn8j0qIjYrUOeDlHve/vLSW/Bm5lFURxBfVrKuJEmr02YAOKxAjXWBpzUtUr90977mwwGq37P/ioj1C9UDVr6wuBNlZk4kSZpXawEgM08Hflqg1Eua7glQ+xhwSYE6AHcH3lKo1kqZeT7wIOD/SteWJGm2tl88O6hAje2plsw1kplXU3ApH/DqiLhvwXoAZOalwG6UmUGRJGmV2g4AB1PmGNz9C9QA+CTw60K11qZ6FHCLQvVWysyrM/PpwBOA35SuL0lSqwEgM39DmbMBHhQRDy4wnusoFyYAdgQOjYi1C9ZcKTO/TDUD8inaPYJZkjQyXaw9P7BQnSKNOzMPAb5RolbticCnC9a7icz8U2a+GNgdOL+t60iSxqWLAHAUcHmBOo+OiB0L1AF4CfDnQrUAnhcRpVYZrFJmfgu4J9U+BH9q81qSpOnXegCop90PLlTudSWKZOYFFN7Qh+qlwCLjW53M/HNmvgnYCtgPuKjN60mSpldX289+iDIvAz41IrYpUAeqrYrPLVRrxrsj4oWFa95MZl6ZmR8G/hp4MnB629eUJE2XTgJAZl4EfLFAqXWAAwrUITOvB15M+ZfrPlkf8tO6zFyemV/MzJ2o9g/4ZhfXlSRNvi4PoCn1jHyfiNipRKHMPJlqdqKktYBDImKPwnXnVe8k+PkurylJmlydBYDMPBM4sVC5j0ZEqbHvT/kp9PWAL0XELoXrSpJURNfn0L+PajlbU/cBnkd1jG4jmfmXiHgq8H3gtk3rzbIhcEJE7JeZnyhYd9AiYkvgfn2PQwBclpmnNilQh9gSB3JJAH/OzON6HsO6EbFXz2Mo4a6NK2RmZx8ggHOonrs3/VwKbFJwbHsCKwqNbe7ns8AGHfz+PqfAWLdpOIantfR76Gfxn5MK/J06aQC/Dj/T8/ltgb+TnxzAr2MqPl2+A0BWf3rvLVTudhQ8kCczj6XsWQGzPQs4LSK2bam+JEmL0mkAqB1CNQtQwj9GxHaFagH8C3BCwXqz3Qs4MyL2bKm+JEkL1nkAyMwVlNuPfx3gI4VqkZnLgb+nXECZ69bA0RHx5kJHHEuStCR9zACQmV+lerZYwsMjYt9CtcjMK6jeB/hVqZpzrAW8DfhyRGza0jUkSZpXLwGg9lqqFxFK+FBEbF6oFlmdYvgoypxhsDqPBb4XEX/f4jUkSVql3gJAZn4XOLxQudsCHy1UC4DM/DHwBMoeGjTXtsAREXFaROzc4nUkSbqJPmcAAN4I/KVQradGxN8VqgVAZp4CPJMy5xjM50HAqRHxpYi4W8vXkiSp3wCQ1al8JxYqdwFwdqFaK2XmEcBTgetL116FvYAfRsS/R8QdOrieJGmkeg0A9cl+JXYGBDigfou/uDoEPB64po36c6xDdUjRBRHxlojYsINrSpJGZgiPANYtUOcCWj4IJzOPp3ox8E9tXmeWWwH/ShUE9o+IO3Z0XUnSCPQWAOq7/2cXKtfa3f9s9TsBDwUua/tas9yeaofCiyLi1Ih4WckVD5KkcepzBmBi7v5ny+pUw12Bi7q6Zi2AnYGPA8si4viIeHZEbNzxOCRJU6CXAFD47v/tXdz9z1YvEbwv8PUurzvL2sAjgIOASyLiiIjYG1i/p/FIkiZMXzMAb6DM3f/5VGcLdC4zf0+1Y2Cpw42Wan2q7YsPB/6t57FIkiZE5wEgIu5EdWxtCZ08+1+dzFyema8DngJc1dc4ZvF8AUnSgqzTwzVLPfvv7e5/rsw8PCJ+DHwJuGvf4+nZcUDRDZm0ZCVC6QsAl6KqlFIbvzVxFfDgvgcxBJ0GgMJ3/50/+59PZv6o3onw3cDLGOndeGb+ETir73GojHqzLmmaLM9Mv0fR/SOAks/+/7tAnaIy8+rM/CeqpYIX9j0eSZJWp7MAUN/9P7dQuUHd/c+VmScB9wT+nXInHkqSVEyXMwCl7v7PY4B3/3Nl5lWZ+VLg4cDP+x6PJEmzdRIAxnT3P1dmfhPYDvhn4PKehyNJEtDdDEDJu/9DC9TpVGZen5kfAu4CfJBuThaUJGm1Wg8A9SE2o7z7nyszL8/MVwF3B77Q93gkSePVxQxAqbv/5cDpBer0LjMvzMynUa2XPxhnBCRJHWs1ABS++18b+GZ9jsBUyMyzMvNZwJ2AA+j2lEFJ0oi1PQPwBmC9gvXuBJw0TSEAIDN/m5lvBrYGXgj8sOchSZKmXGsBICI2otyJf7NNZQgAyMw/Z+ZnMnNH4H5ULwz+uudhSZKmUGsBIDOvBF4KrGih/NSGgBmZ+X/1C4N3BHal2lTod/2OSpI0LVp9BJCZB1IdJmIIWKKsnFxvKrQF8AiqI4j/F7ih18FJkiZW64cBZeaBEQHwGcoHjpkQsFtmXlS49k1ExNp9L0HMzBuAr9efmccsOwO71Z/70M8Jj5KkCdPJRkCTPBMQEZtExL8Cl0bERyJiMEejZuaVmXlcZu6fmQ8EXtT3mCRJk6Gzu8V6JiCB/2QCZgIiYhPglfVn0/pfvxx4QkS8KDOPL3GdwtoIWIsSEXcA7tX3OKbE6Zl5xVK/OCJuA9y/4HikIdi64devExGPKjKSCdfpdHFmHlQ/DhhsCKgb/yuA/bix8c+9znERcTDwmsy8ZKnXmlK7MYHbNQ/Ug4AzGnz9PYFjC41Fmha3wv8ugG5PAwSqEAA8n4E9Dqin+v8FuAh4K6tu/rPtC5wXEa+OiBI7HUqS1JnOAwAMKwRExMYR8WbgQhbW+GfbGHgf8MOI2HOR45QkqTe9BADoPwTMavwXAW8Dbt3gen8DfDUijo6IuzaoI0lSJ3oLALAyBDyPDkNA3fjfRJnGP9djqGYD3lMv0ZMkaZB6DQAAmflZOggBcxr/2ynb+GdbD3gtcFFEvC0iNmvpOpIkLVnvAQA6CQGnUj3jb7Pxz3Ub4M3ALyLiY9O+Y6EkabIMIgBA6yFgS6qG3IdbAv8InB8Rn4+IHXsahyRJKw0mAMDKEPBcBrChTQvWAfYBzo6IYyJij4gY1O+/JGk8BteAMvNzTG8ImPFoqv38f1m/MLhD3wOSJI3L4AIAjCYEQPVo4rXAORHx/Yj453orXUmSWjXIAACjCgEz7gV8APh1RBwXEftGxOZ9D0qSNJ0GfXRsZn6uPjvgQAYcVgpbG3hk/cmIOBv4BtUjg5Mz89o+BydJmg6DDgCwMgQkcBDjCQEzAvjb+vMq4LqI+DY3BoLvZeZYZkgkSQVNREPNzIOB5zCexwGrcwvgocA7ge8CV0TECRHxLh8XSJIWY/AzADMy8+D6ccBBTEhw6cCGwO715z7AYf0OR5I0KSYmAECvIeBqqjOkh+zhwBBWEHyd6hx7NffDvgcAvAz4Xt+DkHQzL6U6ln7JJioAQOch4A/Ah4CPAjsC7wV2avmaTfS+y2Bm/h74fd/jUDE/zswz+h6EpJuKiL2a1pjIqfT6nYBn0947AX+g2sd/28w8IDP/lJnfzsydgScC57Z0XUmSOjGRAQAgMz9P+RBws8a/iuseSXWn/UJgWcFrS5LUmYkNAFA0BKyx8c+57vLM/Azw18AbgD82vL4kSZ2a6AAAjUPAohr/Kq59bWa+C9ga2A/4xRLGIElS5yY+AMDKEPAsFh4CGjX+VVz/qsz8MNWMwNOBM5vUkySpbVMRAAAy8xCqELB8np9WtPGvYgw3ZOZhmXlfqg17vgpkyWtIklTC1AQAWBkCns3NQ0CrjX81YzkxMx8D7EB1yM/FbV9TkqSFmqoAADcLAZ03/lWM58eZ+Wqq9wQeBRwCXNP1OCRJmm3iNgJaiMw8JCIuAs7po+mvSmYuB44Hjo+IDYEnUT2y2I0pDGKSpGGb2sZTb9wziOY/V/3S4Gcz82FUMwMvAI4Aruh3ZJKksZjaADApMnNZZv5nZu4NbAbsCrwb+EG/I5MkTTMDwIDUqwhOzszXZ+a9gC2pwoAkSUUZAAasnh14PXBU32ORJE0XA8BkeC7uMihJKmgqVwFMm8y8PCKeBpzCwP/MImJzYPu+xzElvjeAF1nvVR+/LWlY7ti0wKCbiW6UmWdExOuB9/U9ljV4KHBo34OYEg8Czuh5DB/q+fqSWuIjgMnyAeCYvgchSZp8BoAJkplJtcvhr/seiyRpshkAJkxm/p7qxMH5Dj2SJGleBoAJlJmnUp1xIEnSkhgAJte7ga/1PQhJ0mQyAEyo+n2AZ+Ixw5KkJTAATLDM/B3wDHwfQJK0SAaACZeZJwFv63sckqTJYgCYDgcAJ/Q9CEnS5DAATIHMXAHsA1zS91gkSZPBADAlMvO3wNv7HockaTIYAKbL1X0PQJI0GQwAkiSNkAFAkqQRMgBIkjRC6/Q9AE2dE4Dd+x7ElPhx3wMA9gPO6nsQkm7mH6gOhlsyA4CKysxLgUv7HoeKOavebErSgETEo5rW8BGAJEkjZACQJGmEDACSJI2QAUCSpBEyAEiSNEIGAEmSRsgAIEnSCBkAJEkaIQOAJEkjZACQJGmEDACSJI2QAUCSpBEyAEiSNEKeBihJIxARtwJeDvyo/lyYmSv6HZX6ZABQURFxW+CufY9jSvwwM6/qexCaGtsD75z1/6+NiJ9wYyD4MQaDUTEAqLSHA4f2PYgp8SDgjL4Hoamx/Zz/vwHwd/Vntmsj4lxuDAQzn4sMBtPFACBJ43CPBf68DYB715/ZromI+2TmT8oOS33xJUBJGoeFBoDVWR/4RYmBaBgMAJI0DnMfASzWhZl5bZGRaBAMAJI05eoVAHdqWOZHJcai4TAASNL02x6IhjV+XGIgGg4DgCRNv6bT/+AMwNQxAEjS9Gv6AiA4AzB1DACSNP2azgCsAM4tMRANhwFAkqZf0xmAi1wBMH0MAJLUkYjYMCL26Piava4AiMoTGl5fLTAASFIHImJD4Fjg2IjYu8NLb0fzFQBLCgAREcAngCMj4l0Nx6DCDACS1LJZzX8Xqi3YD+0wBPT5AuDHgZfU/3t/Q8CwGAAkqUVzmv+MLkNAiQCw6BmAiPg48NI5/9oQMCAGAElqyWqa/4yuQkDTFQAJLOoAoLr5v2w1P2wIGAgDgCS1YA3Nf0YXIaDpDMCFmXnNQn9yRHyM1Tf/GYaAAfA4YJV2ErBn34OYEq67nlALbP4zZkIAmfnFwuMosQJgwc//6+b/jwv86fvXv+bXL21YasoAoKIy87fAcX2PQ+rLIpv/jLZCQGcrACLioyy8+c8wBPTIRwCSVMgSm/+MNh4HdLICICI+AvzTEuv7OKAnBgBJKqBh859ROgS0fghQ3fxf3vAahoAeGAAkqaFCzX9GyRDQdAYgmeddlIj4MM2b/wxDQMcMAJLUQOHmP6NUCChxBsAqVwBExIeAVzSsP5choEMGAElaopaa/4x1gAcu9YvbPAMgItYH7tuw9uoYAjpiAJCkJWi5+QN8ODNf3eDrS6wAWOULgJn5Z6rlvqc2rL86hoAOGAAkaZE6av77NazR6guAmXkVhoCJZgCQpEWYkOYPHSwBNARMNgOAJC3QBDV/aHkFwMqfZAiYWAYASVqACWv+0PwRwC8y8+qF/ERDwGQyAEjSGkxa869XAGzTsMyijgA2BEweA4AkzWPSmn+ttRUA8zEETBYDgCStxoQ2f+hgC+DVMQRMDgOAJK3CBDd/6OgQoNUxBEwGA4AkzTHhzR+azwAkDQIAGAImgQFAkmaZguYPzWcAFrwCYD6GgGEzAEhSbRqaf0TckuYrABrd/c9mCBguA4AkMR3Nv1ZiBcCSXgBcHUPAMBkAJI3eFDV/6PkFwNUxBAyPAUDSqE1Z84cyAaDoDMAMQ8CwGAAkjdYUNn8oswJgjWcALLm4IWAwDACSRmlKmz80nwH4Zd2kW2MIGAYDgKTRmdbmP7QVAPMxBPTPACBpVKa1+dcGtwJgPoaAfhkAJI3GlDd/GOgKgPkYAvpjAJA0CiNo/tDjIUBNGAL6YQCQNPVG0vyh+QxA4zMAlnxhQ0DnDACSptqImj80DwC/ansFwHwMAd0yAEiaWmNq/oVWAHQ+/T+XIaA7BgBJU2lMzb9WYgVAL9P/cxkCumEAkDR1Rtj8YUJfAFwdQ0D7DACSptFjaK/5/xF4T0u1m5i4JYBrUoeAd7R4iZdExB1brD9oBgBJUyczvwC0dYe+KXBiRNyhpfpLNXUBICJ2AQ5vqfwVwCMz85ct1R88A4CkqZSZH6a9EHB3hhcCmj4C+FVmXllkJAXUzf9YYMMWys80/++0UHtiGAAkTa2xhIB6BcC2DcsM5vl/ROyMzb91BgBJU62DEHBCRNy+pfoLNTUrAOrmfxw2/9YZACRNvZZDwHZUMwF9hoCpWAFg8++WAUDSKEx5CCjxAmCvAcBp/+4ZACSNxhSHgBIzAOcWqLEks5r/Ri2Ut/mvhgFA0qhMaQgocQbAn4qMZJEiYids/r0wAEganWkKAYXOAOjlBcC6+R+Hzb8XBgBJo9RBCOhqdcDdaf69vPPn/zb//hkAJI1WyyFge7oJARO3A6DNfxgMAJJGraMQsHlL9WHCVgDY/IfDACBp9DoIASe2GAJKrADoZAYgIh6EzX8wDACSxESHgKYzAL/uYgVA3fyPx+Y/GAYASapN2uOASVkBYPMfJgOAJM3Scgi4B2VDwOBXANj8h8sAIElzTFAIGPQLgD7zHzYDgCStwoSEgMG+ABgRD6Rq/hu3UN7mX4ABQJJWYwJCwCD3AKib//HY/AfNACBJ8+goBNyuwdc38ZvMvKJhjZuw+U8OA4AkrcEQQ0BEbEDzFQBFn//b/CeLAUCSFqDlELADiw8B29H8e3ix6X+b/+QxAEjSAg0sBAxmBUBEPACb/8QxAEjSIgwoBAxiBUDd/L+GzX/iGAAkaZEGEgJ6nwGw+U82A4AkLcEAQkDTGYBGKwBs/pPPACBJS9RBCPj0qn6gXgGwbcP6S57+r6//JWz+E80AIEkNtBgCLgD+cTU/VmIFwJKn/zPzWuCZwDUNxzCXzb9DBgBJaqiFEHABsFtm/mY1P977C4CZeQLwOMqFAJt/xwwAklRAwRBwPvM3fxjAC4BQNATY/HtgAJCkQgqEgIU0fxjQGQAFQoDNvycGAEkqqEEIOI+q+S9bwM9t+ghgWWb+sWGNlRqEAJt/jwwAklTYEkLAecDuC2n+fa8AWJ0lhACbf88MAJLUgkWEgAU3/9rd6XEFwHwWEQJs/gNgAJCkliwgBPyUhU/7zxjM8/9VWUAIsPkPhAFAklo0Twj4KdWd/8WLLDmIFQDzmScE2PwHxAAgSS1bRQhYavOHAewBsBCrCAE2/4ExAEhSB2aFgJ9QTfsvpflD8xmAizPz8oY1FmRWCLgYm//grNP3ACRpLDLzwxHxqXor3UUrtAKg1en/uTLzhIi4y1J/zWqPMwCS1KGGjbDECoDWp//nsvkPkwFAkibH4F8A1OQwAEjS5JiIFwA1GQwAkjQ5nAFQMQYASZocTQPAb7taAaDhMwBI0gSYxBUAGjYDgCRNholcAaDhMgBI0mTw+b+KMgBI0mS4DDgauBDIJdYwAGgldwKUpAmQmccBxwFExK2A7aiWBd5j1j+3AWKeMj4C0EoGAEmaMJl5NfB/9WelNQSDSzLzD92OVENmAJCkKbGGYLBlL4PSYBkAJGnK1cHgvL7HoWHxJUBJkkbIACBJ0ggZACRJGiEDgCRJI2QAkCRphAwAkiSNkAFAkqQRMgBIkjRCBgBJkkbIACBJ0ggZACRJGiEDgCRJI2QAkCRphDwNUNJ89o+I5/Q9CEk3c5+mBQwAkubzyL4HIKkdPgKQJGmEDACSJI2QAUCSpBEyAEiSNEIGAEmSRsgAIEnSCBkAJEkaIQOAJEkjZACQJGmEDACSJI2QAUCSpBEyAEiSNEIGAEmSRsgAIEnSCHkcsDS9rgcu6XsQUmEbAxs0+PoELi00lolmAJCmVGaeBtyh73FIJUXEJ4EXNSjxp8z0vwt8BCBJ0igZACRJGiEDgCRJI2QAkCRphAwAkiSNkAFAkqQRMgBIkjRCBgBJkkbIACBJ0ggZACRJGiEDgCRJI2QAkCRphAwAkiSNkAFAkqQRMgBIkjRC6zQtEBGPBJ5YYCxq7m4FarwjIq4sUEfSsPw+M9/Y9yA0HI0DAPB3wIsK1NEwPKPvAUhqxS8AA4BW8hGAJEkjZACQJGmEDACSJI2QAUCSpBEyAEiSNEIGAEmSRsgAIEnSCBkAJEkaIQOAJEkjZACQJGmEDACSJI2QAUCSpBEyAEiSNEIGAEmSRqjEccAlXNH3ACRp4G4JrNv3IDQ9hhIA7pCZf+57EJI0VBFxGPDUvseh6eEjAEmSRsgAIEnSCBkAJEkaIQOAJEkjZACQJGmEDACSJI2QAUCSpBEyAEiSNEIGAEmSRsgAIEnSCBkAJEkaIQOAJEkjZACQJGmEDACSJI2QAUCSpBEyAEiSNEIGAEmSRsgAIEnSCBkAJEkaIQOAJEkjZACQJGmEDACSJI2QAUCSpBEqEQCyQI0oUEOSplnT77XT8n226a9jRZFRTIESAeD3BWrctkANSZpmf2z49dPyfbbpr6NEz5oKJQLAxQVq/FWBGpI0zX7X8OtvFREbFRlJv5r2i2VFRjEFhhIAtihQQ5KmWdMAANPxvbbpr8EAUDMASNJkMABUnAEopEQAuJTmL1VsVWAckjTNLi1QY6K/10bE7YBbNCxjAKg1DgCZuZzmfzEf1nQckjTlSswATPr32hLjNwDUSu0D0PQxwP0j4g5FRiJJ06nE49bHRMTaBer05QkFahgAakMJAAE8vsRAJGkaZeZlwHkNy2wG7FxgOJ2LiHWBPQuUMgDUSgWAMwvUKJHsJGmanVSgxqR+r90N2KRhjcuBC5sPZTqUCgBfKlDjYRHhfgCStHonFajx5IhYr0Cdrj2zQI1jMvOGAnWmQpEAkJnfB37RsMwtgLcWGI4kTauTCtTYGnhpgTqdiYh7APsUKHVkgRpTo+RhQCV+Y58XEdsXqCNJUyczLwZ+WqDUGyNi4wJ1uvIuoOnLi9cBxxcYy9QYWgBYG3h3gTqSNK1OKlBjM+C1Beq0LiIeDDyuQKlvZOZVBepMjZIB4BTKHLLwuIh4RIE6kjSNDitUZ7+I2KZQrVZExDrA+wuVO6pQnalRLADUGwJ9pVC5/46IOxeqJUlTIzNPAs4qUOqWwJcjYsMCtdryUeD+BeqsAL5coM5UKTkDAPD/CtW5LfCVCXtGJUld+UihOjsCh0RE6V7QWES8DHhJoXKnZ+YlhWpNjcjMcsWqv0RnUf2lKuEY4PGZ2fSsAUmaGhFxC6qVV7cvVPLdmfn6QrUai4iHAccB6xQq+djMPKZQralRNPXVjXr/giUfAxw0oWtWJakVmXkd8MmCJfePiEEEgIjYHfgi5Zr/t2z+q1Z0BmBl0YgTqXZtKuU04ImZWeI0LEmaeBFxe6pZgKan4812KPC8zPxzwZoLFhEvBj5GueafwAMy87uF6k2Vtp77vK5wvZ2A70bE3xauK0kTqX6m/cHCZZ8OnBIRWxauO6+IWCciPg78O+WaP8DhNv/Va2UGACAiDgf2Llz2auBtwEf7SqiSNBQRsT5wDvDXhUv/Fng98Lm238GKiPsDH6K60SvpL8B2mfmzwnWnRptvfr4BKL3n8q2A9wDnR8Rzh/jmqiR1pb4RelELpe8AHAicFRElTuC7mYi4a32j+B3KN3+AT9r859faDABARHyCdvec/hHVJhFfycwSmxBJ0sSJiAOB57R4iROons1/LTOvWWqR+qbtgcCzgOdTdrp/tiuAu2bm71qqPxXaDgC3pNoh8N6tXaSyvL7OUcBRmelxj5JGIyJuA/wEuF3Ll7oW+AbV99qjF7K2PiI2APagOob4ccDmrY6w2vTncZn51ZavM/FaDQAAEbEV8F2qKaWuXAssAy6e9U/fGZA0zR4CPKjja17JTb/XXgpsDGwx63NbIDoc02sys9T2wVOt9QAAEBEPpDrAouRyFUmSZvtsZj6n70FMik5eosvMM4AXdnEtSdIonU47L0ROrc7eos/Mg4H3dnU9SdJo/Ipqs7jr+h7IJOnkEcDKi1VvgB4FPLazi0qSptnVwC6ZWeKExFHpdB19vaHE3sBBXV5XkjSVfgPsavNfms430snM6zLzucCrqJbvSZK0WN8B7peZZ/Y9kEnV6SOAm1084pHAYcCmvQ1CkjRpPg+80C3hm+l1K93MPB54AHBen+OQJE2EFcD+mbmvzb+5XmcAVg4iYlOqYygf1fdYJEmDdCWwT2Z+pe+BTItBHKaTmX8EHk11FOXPex6OJGk4bgA+DdzN5l/WIGYAZouI9YCXAG8CNut5OJKk/nwJeENm/qTvgUyjwQWAGRGxMbA/8Epgg56HI0nqzreB12bmaX0PZJoNNgDMiIgtgbcATwM27Hc0kqQWnQm8PTOP6nsgYzD4ADAjIm7BjUdKPh64fb8jkiQ1dAPVUe5HUh3l/ouexzMqExMAZouIAB4I7EUVCO7W74gkSQt0NXA8VdM/JjP/0PN4RmsiA8BcEbEtsA03PYN67mf9vsYnSSORwGXAsnk+P3QN/zD8f4RmNH79C2HeAAAAAElFTkSuQmCC;" vertex="1" parent="1">
          <mxGeometry x="320" y="210" width="60" height="60" as="geometry" />
        </mxCell>
        <mxCell id="F8dkFaMJh0N_z7n8UZEi-4" value="" style="endArrow=classic;html=1;rounded=0;" edge="1" parent="1">
          <mxGeometry width="50" height="50" relative="1" as="geometry">
            <mxPoint x="380" y="239.5" as="sourcePoint" />
            <mxPoint x="460" y="239.5" as="targetPoint" />
          </mxGeometry>
        </mxCell>
        <mxCell id="F8dkFaMJh0N_z7n8UZEi-5" value="" style="shape=image;verticalLabelPosition=bottom;labelBackgroundColor=default;verticalAlign=top;aspect=fixed;imageAspect=0;image=data:image/png,iVBORw0KGgoAAAANSUhEUgAAAOEAAADhCAMAAAAJbSJIAAAAhFBMVEX////u7u4iIiLt7e0AAAD09PT5+fn+/v7y8vL7+/sgICDV1dXc3NwRERGoqKhmZmYXFxcMDAyioqIbGxuwsLDh4eF2dnaWlpZSUlK9vb0PDw9ra2udnZ1XV1fMzMxdXV2Li4sqKipISEg5OTmBgYG/v79BQUGCgoIvLy88PDxMTEwtLS3QunVpAAAPvElEQVR4nO2di3qjKhCAMVwUc7XGJE1b0zRNu9vz/u930EQYBBXTXExW9ny7J1Sn8wvCMAwThIpCvWMJZFX2iQ7J4KpltqEUN2mVFcyKGh8XVbyoYkWVh5pkXZ1wEE1p0KTVfRMOyJQ+OGEYrR6ccBCSBavX6t4JRUd9oQ9OGJMpe2xC0VFf/LMT4mMBssSnGxEWw02FVnkBhEUBhEVBtChMFq3KH92GUHTUBWdVWlVVUbPK0uZctnneTwBhSC5WQgsjWdGgSivYE7HqiUFRpWbUNoQhGQ1HRRnKYlaN2lVl/29DDIV141doVfGuBUXNqYRIXoRkh5BdX3V436ySNdysEn0RWRsxBNbNtQjV+27pD7hJVM5sUUt0MythNqLyalHnJxxohKYsJ0KrWgEgDCMr4g3a8FKE60+tPcVw82iEJJlARDHcsKsRDs7xHtrU0t5DMkJPcAoWZjhtI6qsFQqKwvixMFmVfdLbkBYXcVpcpKqaRFVV0YDqhGiuI4p30VmUoZVCbbbaBGG9fdQgSje1kCYKEA6ph5YlRAHjLKpKKwfLOycs+opp4/7KuaITYtGKpeGGOYvStWq1trgmoXgX9eGGOou6F8LycKMQH4bQGG6Yo6j7ISwPN4vHIzSGG//hCMvDzaGjnk7oMh+6zTy/nQ+VKG24iQ/WTdv5sED1mH8sXFZln8p26fEiYAEW9zWKygtT7atEBbpNo0SVh5sVow2iylr5v149ncUuLREqUTbrxsXyPtmLcZW1xUgXZVg3qFaUoVX3CQ3rhtWK+hXhddb4BqF1MfVQbWhbTD1YGxrWzRHxgdqwwrpxJMTG/MllVb038Viou6iDWsdS48WwiLJZN1ZRhlaI1RfKtV4KNxLOVzSPMBlxyy8xhxvbVbaiUK/txdBFVVhtUpTFugmoXVSVVp20vDVRhnXD7aJ0rTq+ttBFVVo3D0NYGm7IgltF3RshhqIqrJu7I2RALeodPLzHCa483PC7JByhmjIZ68MNbUOIrWqdRGgX5UZYv5W+Hmjl8DjqCeVaGDx4uGIuERYXedxYaStZFaLyItf/mii4Qxpmf2QpKgbyY4mwLMrQqs7Uyj+ex2qTFzVaba1Kbh40WG1m97nx2qItYUmUoVX31ha3JHz8Nnx8wr6X3j/hRdvwJEAnwhbz4eBy8yE/MczPZT5sCq5gQ0joFm/hFKehVaFhdVSfUTXSjNimKBCFWhiTWDMmDS9G0e1c7FLsbpceqmoC/UDMoGGm38XaosXDMlyPd05oiuoJe8Ke8J4JLUM8Pt9sUVRdfyxVmwf20wtcIzz51IPTfY6iNEK/SVQ39p5aiiptctyDF6OlKN193CCqG2uLrhD2bdgTdp+w76UdJeyEF6OlqHbzoSy3jS9tIcq02u7ivEULUf3aoifsCXvCnvCmXgyH+fBikXstRNkI60Q1+RJ8/QzptTwVdfdpNg1vEnWzc8D1qR5a2KX4jFkj+rXF/RP2bXj/hI/fho9PeJbsLW6pHlrNFufLGjG4WNaIdqL0gOImUQr1tlkjWojqvRi6qH9rbdET9oQ9YU/YDS/GPXr1C9SbZo1oJ8qwS7ufNaKtqGbLu3NZI1qK6lfAJxP+a+vDRyTs27CjhHJmfNjIPVZfrpI1olVxSDGhFYX6sHtPSlbRhR/X8u4Je8KesCe82nmL22SNaCGqLWE3ska0ElVKI3kXWSNaiurPW3j/2Nqib8N/irDvpfdPeKdt2GI+7Mh5i7ZejG5kjWgjqvR1H02iFGoHskbcLqdCkVmsO2uLItXZWQhTkDalG4Qw1csZCDH42rFfqHVGQi+AGv2eUHwOvDOodUZCfBhC3LRyIfTAfmMnCFtp5UjYrTZsJaoxa8RpanVIVHPWiGscoLioqOttGN1KVLPlXWpzKauouYHl3UpUT6jLwi5q1Xct27d0nkhYI+rUXgqNCSleUwsHTDM4/NK/YNyrVYvRw4hZq5WMWzdEaXZYC8KAr6ZF2QyLmQoSUs6el4tpTdnM5Qynq5U9G4qfli/ios/lHtPcGVypVbqYvkxo8ZhLhHT4pn5jK0JEZuNjIRZC5u8XY0LWY1Bm2Z/sr+K+VxmgBtUSzUfnn5kpHWUXifL1miJWpVWwEdetyZ/0WGsQkpnUoiVh2X2gEaariMSD+kKeLIQ44Ph9S+DN4ZisV3tGrVqxzWHNOiajg2YmoZLUxvXgGe4DOPP4r2TcnISUPBWzGFArQM9/SFy+OR6ThVIBaiUzs5MNCyzzoU4oi0t4gS1z+kFjylZOKUjJREpXKns/9raPCZlwr6wVRurq4xfqSVHHEWZkJyx6T42NayfM+gWdRgOXogjloMqHu3VV48/IO6UlrfSvR94ji116fkLMXhyTyJqEaB6Nq68PyeYwYlYQzmajqxCid9csuWVCzPf1o1OOWEkoBL7xKxBS7JzouESIWbJtGH5D8p6No1WEA/J9BUL2UvrKAmdCGvyZNd0Skom4tpIwJnN0aUKaaKNMXJvl+Ekj9MvdW0wRJJrpPSImmFb4S/MfDxJ2YUIOv8UnFtbI5OlYJrIUNcshJKQjDTCOyMdCXLPZEm3wIQteQxhGPzRwIjx1PvT8v+pVGv9NfeQXC21lAHOjKgu3oxtIEm0XibBsmfhvvoEUMdnTasL8O3W86vmwjU/ATNeQFZ5sQ6VL4ru7JXhKoJ4/SREMyhmawCE2WiF71ohDmZE9gtK5ZtMYPbHSLjWstsNFFO3VOJO/9e5LzTcwzJB3XzW5+OkQDLLhOEVAlDFyx3F6bN9cUXoiYaXlrb7AJ9wlQZuFOVA1WtAALsSwaAiQe/2pllC8HEfCg0rnJpxIeeMNdxN1IATfbRTvaKCfmcFA7mD2JQdCK2FIvv2rEMYbvw3hu5plyDM3TgWxlerEJKBKlMW+iMnzBQlVU8QfjqJyQjaVb9pslUeYaYTYB20sVoK1hIPxAF+O8FlrCseRRhCCMZi85tOj3oYBU4ONMN3qCcNoxy5GOFRfwzT78qk7IRiDU2q0oeimU9lNo0Uhq4JQyFj+mrBqtvD/qHGdbDBiyhsmJqdscK0gBPvnOMsVVCLE/rc0CMZTZCWEdkE0t84WLVI96DN+cRnlaAHsUmGYpCPw9RTpCGfxBpasEXocC7UENvBXNUpPpaYwa0S4BYgz4h2ks3N7MRg0TTLjUi9/X14TJV1tGJXO3yLLIYkJJCyK9rLAb30US8mLrZ6mNUugcCaQ/+45Lbl4rYTFL3QmTJ615fDiUoRp/Qo4DMdkk3B8AcIRWkDbNnfbXMSLMW3yYsRR+Ix+QbiuJAx2qgMd3DaXIKT4p3GVP57N0emEs0pCNNT66Ru/CCFmo7DGYXZUUqxxmkaaE9oQoVfAE5PvixCKlUCya3S3iTUOPf97KMqntsycX4Qwa8W3xk0LscZRdssZCb0vMJaH4lU8sxej2L9gyzFpcJyROa8nbD0fHtTQxvLohyWQsGgnkJ8hDzjKSinVQ4VdKtMzcPz+EUWzUCsa4ewjAFkj9NhcTdThEv4ECYsbbVkjnrR++jmyEaoXJHu+uR5Oljc0JgMUpO9vZf8hHIJIypVdqsfmeqZdqhPa7FIZI7zQRptlBSHQLV+rGIQUqGTdA8b5J2V4Zz39eQOs1vVGdRqtDZm5PhRtuHQm5FvwIEPov4WEi+jYscLo20ZIcRNhdpP4W3qUuHgqnAGv7+yPiktAwJEs1hY2wsa1hYrzTgcVZpVOKOW9MRvhXqkaJcWNTQEUou+qnbcwlk9GJ9xb14dvcnQW68NCekUk+7xitoKEr6DXeNT0JvrKrzL7kq9TY4iIWK7FSjCIVMA7pem7ZY1PPdBnnpoI0cJuVkFCGLP+yo1la+ApjdYLyeMQBBP8KG/EqxxMEX+Rk0u8w4YoDI0Vklj9NJCQxdb5GBIydaf4jUGZEIER6rDj5UiIkXLea5EK4AUlS1QeSwO8A21PZdRN5XmLxBpHACMV+AZ4776RRihm9GQAnBWpNBAcwu3YCrbh8SIvm6ilwHiQUF2Uh77BCLVR1kD1eQvrqwizRkDvXUie9RQRnH+MwU9Rm/QRI+BUm6g7oVckXH9wPQEEegb6krnc7anJGiHmOwuhLBQHCTBB4miCYDslb2CSId8+iFUtmVqmAah6YzhLi4t8ccMnlPmWIChqEgFlRAtL6dVZIwL8Y5qNkNDTXEpxFs2Sjai5LZ7+B38UDQMtGreeUOuM8qpsX3cEJzHy5xnx3DMn3m2+0FZ9G2TfXdNPI2DNBWUSCpJEC9shZJEmHPnBaP6hrRtEE8J44+OeoGbKqDJ6B/eOV7LezwZruO4Rz3QwHwXCvk3ST6L9IE4CF8J8r6M82miE+m5uZv1Eu7fp9KO0JRvHmAJCOn+rDNSbTjdb+HAyr60iFFaSNsKHMdl+TKdvu1L0GFlW7QGbJ0oW5VbUCL2Al+aUMAu5m5XmGTLhME8KeyV5bJ4KljvE6x2rNIQt5pAQ80lJoTj/haV9/JgHzufx6UfpVdQJMU/DCvMOAE59D0bFs6cKe8ly6xKsDw8xd82hRvEsZVWxGJZTQcNSP9UJxZtRfqhGGX9heiLhTCwhSoQUfzU5eLIu0yanQokAEB73Jpb1vs/1Fuej5wmEYfTMy4ckhLBtrZsuFK9uZs60OJ2nv4pG1ojAf69DjL6GB7NL5WfgjoRCV9+SNYIPv2qC/kJhk+f2mnvWCN1tY4svFcZPVceJybR4luBkQ2PHLnTNm7y4TwWFeqtKH9aa7I8XtcgaobngZ7ZTRHy0sTdjNFCDPQiwdyKcHScKyxEC7i8H1mcako10eLU56QwGk/GLdf+Q0gkxGMOI/CS8JMuVMCbkaK5ZD0nw5MfsN1n8rLLV2hAGrHgVQ9EHbITiKQSvO7JW81I8I9FLKsbbUwjFzdtlId5KKLp6+hIRNfGG8ZrsXgPfs+7bNp5WD9hXfk2cvRl2Qkx9nC7+btcHx1T852OeMGaRlRE+1YbqkWiwmsOQcQuhKIwl84/dMepvPdgtUuwH2FhMHwhVSe3n8amXnRoggyWvPm+Ru83wfj6fTObzoRjJAotaB8Lhkx6dpwfszZ+xMKgdjvJkxnx6+H37xM+OIlTtvb9K6csksGolOsVQXJBkdVWEHvTTCKsJ29XSzlsUG9kIVLFsJx9b9/Etaqkq3KxVJr36ucviRNjNk11uR6iul/roVqIas0acKdXD7UQp1MumeriZqH/rLHeH1OoJz0/YNqdCzctzbVEuhFlouLpKHnOX4s0qroLOjfsuIeqXhDgdDmEo3rHUVQ1rqs4sirUhtPSHLCIytVnTnSkO+WmsByFAFbe4kbtTyMi3H+tokzVi1GnCM+e+7F45d8697pWesCfsCW9fesJ/gvB/3GXy/GvjotAAAAAASUVORK5CYII=;" vertex="1" parent="1">
          <mxGeometry x="460" y="210" width="60" height="60" as="geometry" />
        </mxCell>
        <mxCell id="F8dkFaMJh0N_z7n8UZEi-6" value="" style="endArrow=classic;html=1;rounded=0;" edge="1" parent="1">
          <mxGeometry width="50" height="50" relative="1" as="geometry">
            <mxPoint x="510" y="239.5" as="sourcePoint" />
            <mxPoint x="590" y="239.5" as="targetPoint" />
          </mxGeometry>
        </mxCell>
        <mxCell id="F8dkFaMJh0N_z7n8UZEi-7" value="" style="shape=image;verticalLabelPosition=bottom;labelBackgroundColor=default;verticalAlign=top;aspect=fixed;imageAspect=0;image=data:image/png,iVBORw0KGgoAAAANSUhEUgAAARwAAACxCAMAAAAh3/JWAAABhlBMVEX///84tqghHR7wtBjlP4EAAADttxkImtkwm4sfHR4AkYTTlyUwm4kts6W04dvu7u741N/iIXKoqKggHhzvsAD21pxoaGgmJCY3opL0uSNjUCQrTkoQERzo9fO5xssfJyscFBIXKzYdsqAaFhQyppz98PXr0KF4zMH34aiJiYnkOHy8vLzV7OixsbH++vFTU1NQqt7ywUMsqN776tHLy8uUlJRxt6vk5OQHo+aGhoZ1dXXRlSUAldcYSWGcnJzo6OjcoyBMTEw8PDzT09PPjAATGRUhFQ5dwLMzcWhwcHAvLy9fX19DQkPwxFnyzHXuqgD67MjgAGPvm7f01I3nUIv63ujxwkTZqFH89OXlwH/5573rc6DaozPr1LTvkLLlrB/1wdPpypfpYZJbiaVmvebvr8QFVXW73vM4JzBJLDlQJDZ7RFulSWy9RnTRPHcMHxxiQE0UisDR7fhqNkmJm6QSbZONyOkygHRnfm6XycAoNTQjChEyYlsAIy8md5k0eW6Z188sGCHw4lP0AAANOklEQVR4nO2ajX/axhnHMfgwiiGaETZ4mVeC8gbYZk5QGDSFghM7xi/ZFi9t0712bZYsb126zoubre5/vjtJIAnpXiUwJPf79NMYJE66r5573k6xmJSUlJSUlJSUlJSUlJSUlJSU1AeqzVtubYb5scAADPpZKIlfd/PG8vJhMpnM2Uomj5aXb/AMcPTAUS6ZS6weLf9G/H6CdHUphH77O9HLPj7cSkIeXsEvHh3eYh5jOZcYKGn+P5db3ToSvaMgXZ2vzItqSZDNrcOED4xDKPeQ8fm74DjK5ZY/F7urAIWAUzn+vcgVHx/l8GgsA3rIZD6BcCCe1cgWVwg4SyJsbm3BRUBTbvURw1AYOIlc4lFErlkYTqUi4I1vffaASsbmQ7ceHBxkPNEsLWE4xwJsvvh0cfFTVjrJx5TR8HASua1IbEcUTuVL7ks9/sPdxcXFj1npJBM3yDMkwIF4oqAjCKdyzH2lPyI0HHQS0HiIq4MIJxHFyhKDU/nqKu+FBmwW2VdWMkmcIRFOMoqVJQSncszN5prDhmNlJXMEOmTLgX4nDBdTQnD4sz+X3fDRSeKDFgVOIhc63xGBs/Qn3qt42XCtLLzfocFJrLKXIsESgMPP5toom8WP/8zKJoFdWTQ4MFeaOJxKeLtBYjcd3MqiWg6e67jgVJa42QSg4VlYuWVhOIeThVOp/IX3El8EGQ67U8axYYATNhXkhbMUERtmt4N3HCxwwnkdTjj8bG5g2LC6HZzdsMEJ1/vig7P0De/4m59h2SzSTSd3RKg+GeCEzHW44Ai0twIjFZtPzj3YIvbMmeDQSnuieOBUlrirhs/v3r27GMznLsl0th49OqR121ngPJgUnMo8N5vY5l+vEXQDK5axp8py+J3xeMUE5yhMMGeHs/Qlv+GMVUxwQjUumOFUvopsVhFpeuAItEXHramBM312M0Vw+LM/pM4vaQpx55OBU6HjEdv4VfsfUdT/268C9DXb8OOHE/tm/vgYASIhEtwUrwItTpIW33myEKA7d27+nWH48cNR+0+fPXv2j++eP3/x8tWr+UBEFcEXBg6KmkJUfOeTIDgIDwOdCcBR7pl6DfX0W0TIB4i/vWXrI10hWk48rl/+ZzCdhQU6nQnAyevQvjVNiStxDTLSnn774uW820sLbYqbAgptWWk7WDh025kIHMQFPmLIJ64oGiTUf/bilYNHmM02QAOSVhV0Olg4C3feUMafCBwNKW79Z/LR7917+t2LY2t5LQm/2vYvmuXAw8Xv8XBoQWsyy0rxuwbohfrPX86Hyv7KQCPDgU9j5/tfY+nQ3M6E4AQ9VO3ea4SHf1N8qCYgo0GX2fkED4fmdc4Njumk9df55yEq8RYIHtnFhghn4SZ5/HODo5m+OV58V7goPDQVDjw6o3DQc41fSqUvvF0XHLoFNIrlaEQ4d6YVDjKceBGySaXShTWxoaHl0B1yCDgPz80hwzvXTxEbSOdCQWjoFjWUUxzyv4nDbx4lVqlKhNrVw0YrpZg/SSPDSaXT6dsinqdVpFkOdMhPxKPVxs8Z9J/btq5jhV8YOJ8Dp3UfUjFtB/5z4S0/nDLNcsyyHA/nJjlFbuR/waBL6NkiZXAqccOJa8X7JhmbT+rCbW441AwZwSFkyORVFWv0dUUjCT5hpXipgOaQThXmcOKHoyFnbC4qm086fZ2bDj1DJsGhuONYzKAlmdCnQTjIbFKpQiY6OHagshwy+qMwl9nljeksGTK+KqcO36b00qDf1JDlWHAisRzTIvXTk4KNxrTKdAqCz5Q43fJlnWj2aGqnODi0RcUGJx4xHLiOFeWHE2tIC07KZAOV4aOzB8iNQEUp4jqBDL2uc4GDPt4vpGyHYy0re8Fm+Oh0QJGinScLd9xasD7epJsNVHbycKDdFN+ZAzqm44zMtbI6/71M0/9u+vT1mze0Npd96wf6pOEgD2+5mQEbz8AZ0UprDNqfOByteJqyE+MBG3cUzEwRnX1yOIwWjhJHwe/0xGU0CJM3Q8jw5zvjUmOCcBQruv5YSKVdaNJXRgc7m9z0KZogHA1tQBTvF9JuuwkadYLTJ4ucI0cNJx5/V3C54rQ7UDkLa1ewwRO5ticHJ64MK6phhhM4ZondJ68XrpC0u04Qw/BE04kODupuWYEq7YpU6eByjZ3O2gWiMqVMKVDwwNzZGTWpgpU5vriNCg66ghbX+7CiGtZTeDZwYbHCib0lsUlh79i8SiZzRht+hVD5RwRHsXZi8j+mXc44jWXDVWTdJhkOEQ668dI6xb+BOJZORHBgegMJuQNVGutwbDrMPnld1HDsC1G8v4Hv4kdlOZo5jlU1DOEQ2PCkgng6VMMxr5QhD4/fV40Mjt36G0Zx1Fgk3nuJGc7alTBsIJ05ou3UAa7CigSOufU2qKiG7T+8w7Fumd0n4yIWGxtqSl4Hg87ZWODAcKX/dOJOi9M0NlAcBWgYw5kr0VZwtxiPBzmeyOCgisqJU+k00eGYoodZR2fjZBPrHOiBISsiOGbrz9UUZWBDHNSn60KRConF86tACaITEZziJU9+Qw5UPLeNpcPMhmnLQw2M59HAKZ66qk3Tbphsnj1g+ekwLir6mrJURnRGjScSOPqgohqWVGy3ztf2OhsjG5Tt6L6QFQWcYv7EccbuvYZo4cRiBU42GZ62mtoDozErEjiuQJUijzN693zbWGu3+djs8u0DdUH0cFB7y0lwyBVVODiDSoKxamDPMu2Z1AGIGs6l1MAXW3DY2Qi0BNfesrK5LrDJsd0EwAsn5F75WsHVpkB82NnwpTq2Lp6VqHQynDurjqorwOzAWK5ZQy9EmG9ZCL6CslZIpwbv96RZqoaQcKB2dzMEQJnS3NyZGBokNQ8s36OhPoy5rEyJwXEbDnOgGkyE1y/Yuni2i8GTKV0/C7drqLbh4tLNN5cUTQtpOeam+EAcDseai+gU1tbPUKc4k5mz398wX0ArlZja6jTV6weQjyn7zS6SKyXBcTpc/GzE4Zha30VCYMw/ot3xWanVat1aL9Q7gWsFx25S2AGwA4u/3+7cwcWLEYyCkbpxkSrKvYlrbLOSkpKSkpKSkpKSkpKSml1lwd5538L0KgtWzvsWhLTRslXeHt9FZhKOWgVu7Xca47nOLMLZ6CMi2TZUdt/iM54LzSCcLoTRbqjWB7XRaEk4Q0E2tZGv6qrztwqykV1q5uBAOyHGVwNsRHatWYPT8duNV80PGA6MU+TJtz5gOHmK8+10P2A4tMhUp1kWj943OAYWjlo3hf+pddwd+d4rOEYZ5Ty1ctOSq7BolMt2utgsd4J+mi2X7Xx7pdwenOGHk222An8+HVIIcLrAq+rgQLOvw4/9Xq+Hcmu96ftl9QCdn4cnWPWI/bUPThZEmEVFrzZ89thjhmHswUdv2BpUXBtwvi2jjf5Us8hAWqr3h+iEfSOLzq+2jTIYrL1ROG0X8GkUzHP6pDo8KNRXwYrrJ9twfW2PHAfA7WqGf4/A2Zhuu4GPvgaAoeKPU/Mg8xTd/RnOuRtc1nvhTPmaQmogt4G3HQY4aHV4f9HDtDw8cCCb2phaI9FJRa6zhTvKAkf1mMABnrUbDlp7BIudFql7KPbsNQIfIyOc/eEHaEbY3McFB669gykO4i5VzZwknw3AwASn74JjgBp20i44MA5M/ZoaqGOldLWAyMRQPmSdyr7RA2XCeQM4KwDMDBuk6oqV0PrCMh1O1YEDazEDe94Qzv4M2Y2tahU5H+BxzgJw8PF5AGfW7MaSWu2P0GHyOTU3nDz+RBvO3kyyQWp33VUUFk6jXt/X9WHZNYTTA3382BacPWJiNd1Su+6MNxhOttz31qRDOH0qHFTog26ktzxJ9V3FaBAc9II/6B3U2jHVkmtZ5WlwYNbQ2Cd57SkXLEa7g+Q1AI5Zc7fd3xjMy6pW7+cbMRXSbeNPm241HSJ+OPWRmjuGsmJWOMDyxZ2x7RuOX1kSnD2gjLhTaAis0QooVvqszq7bIcGp+leEqnjyHPyCyTr1esvfIpsRbZDhjGZ5KvDAYSkfUJI8o8kOyXKy/vXghgNrK2z7w9vPUWaiZeFXywPHYyiwAvfBybq3lA22loX5qxlpWnjUcE3W52KyQBmdfN4NJ0twtd42aXv626QB0l1AfHD8PqcFPC8jdNk6gTGPgc6Mqu4kpK6DfXXk6Irnizr44Sc3nDq+dBqBsz1zRVanBjxeY290AiNfNPugk/W8xrKBnfPovhXkOM37wy3QrNedmWxvozXiSfKqo1NFXwxsp7G9gtpWVe87PuiMg+FvOvX2oMj37XhuELYUz19miaw3y+WyYRhlw6y1297HDj1s3jDQ7mfZQoIso2btgfasbZgROCYd0DLPKBs1pwPig4OKrCmOWLW+t/mQ7/l85MbwoG0v1Z5zujnvui9AGX1leE6/j9sOjqFGuxLthCIWfLxDBW5+1u2DTkbbtn8yiFtVf0zeHo7p+s7wkVcNY6q3y6WkpKSkpKSkpKSkpKSkpKSkpKSkpKTeZ/0fbxyXxiGnRN0AAAAASUVORK5CYII=;" vertex="1" parent="1">
          <mxGeometry x="590" y="210" width="96.28" height="60" as="geometry" />
        </mxCell>
        <mxCell id="F8dkFaMJh0N_z7n8UZEi-8" value="Raw Log" style="text;html=1;strokeColor=none;fillColor=none;align=center;verticalAlign=middle;whiteSpace=wrap;rounded=0;" vertex="1" parent="1">
          <mxGeometry x="180" y="270" width="60" height="30" as="geometry" />
        </mxCell>
        <mxCell id="F8dkFaMJh0N_z7n8UZEi-9" value="Parsing Script" style="text;html=1;strokeColor=none;fillColor=none;align=center;verticalAlign=middle;whiteSpace=wrap;rounded=0;" vertex="1" parent="1">
          <mxGeometry x="310" y="270" width="80" height="30" as="geometry" />
        </mxCell>
        <mxCell id="F8dkFaMJh0N_z7n8UZEi-10" value="Transformed Log" style="text;html=1;strokeColor=none;fillColor=none;align=center;verticalAlign=middle;whiteSpace=wrap;rounded=0;" vertex="1" parent="1">
          <mxGeometry x="440" y="270" width="100" height="30" as="geometry" />
        </mxCell>
        <mxCell id="F8dkFaMJh0N_z7n8UZEi-11" value="ELK Stack" style="text;html=1;strokeColor=none;fillColor=none;align=center;verticalAlign=middle;whiteSpace=wrap;rounded=0;" vertex="1" parent="1">
          <mxGeometry x="608.14" y="270" width="60" height="30" as="geometry" />
        </mxCell>
      </root>
    </mxGraphModel>
  </diagram>
</mxfile>
